<?xml version="1.0" encoding="UTF-8"?>
<svg id="Capa_2" data-name="Capa 2" xmlns="http://www.w3.org/2000/svg" viewBox="0 0 76.27 60.09">
  <defs>
    <style>
      .cls-1 {
        fill: none;
      }

      .cls-1, .cls-2, .cls-3, .cls-4, .cls-5, .cls-6 {
        stroke-width: 0px;
      }

      .cls-2 {
        fill: #956bf3;
      }

      .cls-3 {
        fill: #f0ece0;
      }

      .cls-4 {
        fill: #2d55b5;
      }

      .cls-5 {
        fill: #ff7d5e;
      }

      .cls-6 {
        fill: #161946;
      }
    </style>
  </defs>
  <g id="Capa_1-2" data-name="Capa 1">
    <g>
      <path class="cls-1" d="M72.89,3.05c-1.17-1.08-2.7-1.63-4.28-1.54l-17.01.95c-3.2.18-5.73,2.71-5.76,5.77-.03,2.4,1.39,4.55,3.62,5.47.2.08.35.25.42.45.07.2.05.43-.06.62l-3.56,6.21,15-6.05c2.47-1,5.07-1.58,7.73-1.73,3.27-.18,5.87-2.87,5.79-5.99-.04-1.6-.71-3.07-1.88-4.15ZM62.32,4.6c.43-.07.92.79,1.09,1.9.17,1.12-.04,2.08-.47,2.14-.43.07-.92-.79-1.09-1.9-.17-1.12.04-2.08.47-2.14ZM58.73,4.6c.43-.07.92.79,1.09,1.9.17,1.12-.04,2.08-.47,2.14-.43.07-.92-.79-1.09-1.9-.17-1.12.04-2.08.47-2.14ZM64.1,11.36c-1.47.69-2.79.96-3.96.96-4.35,0-6.55-3.79-6.57-3.84-.14-.24-.05-.54.19-.68.24-.14.54-.05.68.19.12.22,3.11,5.33,9.24,2.47.25-.12.55,0,.67.24.12.25,0,.55-.24.67Z"/>
      <path class="cls-6" d="M40.88,14.44L0,19.22l2.29,30.18,13.56,10.7,40.49-10.7v-4.97l-14.52-7.83-.96-22.16ZM1.25,20.25l38.52-4.5.95,21.92-.21.04L3.43,45.2,1.25,20.25ZM32.39,40.46l3.47,2.96-15,3.82-4-3.41,15.53-3.36ZM5.63,46.24l8.76-1.9,4.09,3.48-8.52,2.17-4.33-3.76ZM15.76,55.03l-3.96-3.43,8.55-2.18,3.88,3.3-8.47,2.3ZM26.56,52.09l-3.84-3.27,15-3.82,3.61,3.07-14.76,4.02ZM53,44.9l-9.34,2.54-3.57-3.04,8.38-2.13,4.54,2.63ZM38.23,42.81l-3.38-2.88,6.99-1.51,4.17,2.42-7.77,1.98Z"/>
      <path class="cls-4" d="M40.71,37.67l-.95-21.92L1.25,20.25l2.19,24.95,37.07-7.49.21-.04ZM3.66,44.9L1.52,20.47l38.01-4.44.7,16.19h0l.23,5.25L3.66,44.9Z"/>
      <path class="cls-3" d="M22.72,35.17l17.5-2.95-.7-16.19L1.52,20.47l2.14,24.43,36.79-7.43-17.73,3.58v-5.88ZM29.28,30.01l-23.08,3.63-.57-10.27,23.65-3.01v9.65Z"/>
      <polygon class="cls-2" points="40.22 32.22 22.72 35.17 22.72 41.05 40.45 37.46 40.22 32.22 40.22 32.22"/>
      <polygon class="cls-3" points="34.85 39.92 38.23 42.81 46 40.83 41.83 38.41 34.85 39.92"/>
      <polygon class="cls-3" points="35.86 43.41 32.39 40.46 16.86 43.82 20.86 47.23 35.86 43.41"/>
      <polygon class="cls-3" points="14.4 44.35 5.63 46.24 9.96 50 18.49 47.83 14.4 44.35"/>
      <polygon class="cls-3" points="11.8 51.6 15.76 55.03 24.23 52.73 20.35 49.42 11.8 51.6"/>
      <polygon class="cls-3" points="43.66 47.44 53 44.9 48.47 42.27 40.09 44.4 43.66 47.44"/>
      <polygon class="cls-3" points="22.72 48.82 26.56 52.09 41.33 48.07 37.72 45 22.72 48.82"/>
      <polygon class="cls-5" points="6.21 33.64 29.28 30.01 29.28 20.36 5.63 23.37 6.21 33.64"/>
      <path class="cls-6" d="M73.91,1.94c-1.47-1.36-3.38-2.04-5.38-1.93l-17.01.95c-3.99.22-7.14,3.41-7.18,7.25-.03,2.73,1.43,5.2,3.78,6.5l-4.24,7.39c-.16.28-.12.62.08.87.15.17.35.26.57.26.09,0,.19-.02.28-.05l17.01-6.87c2.32-.94,4.76-1.48,7.25-1.62,4.07-.23,7.31-3.6,7.21-7.53-.05-2-.89-3.86-2.36-5.21ZM68.98,13.19c-2.66.15-5.26.73-7.73,1.73l-15,6.05,3.56-6.21c.11-.19.13-.41.06-.62-.07-.2-.22-.37-.42-.45-2.22-.92-3.64-3.06-3.62-5.47.03-3.06,2.56-5.59,5.76-5.77l17.01-.95c1.58-.09,3.11.46,4.28,1.54,1.17,1.08,1.84,2.55,1.88,4.15.08,3.12-2.52,5.81-5.79,5.99Z"/>
      <path class="cls-6" d="M59.36,8.64c.43-.07.64-1.02.47-2.14-.17-1.12-.66-1.97-1.09-1.9-.43.07-.64,1.02-.47,2.14.17,1.12.66,1.97,1.09,1.9Z"/>
      <path class="cls-6" d="M62.94,8.64c.43-.07.64-1.02.47-2.14-.17-1.12-.66-1.97-1.09-1.9-.43.07-.64,1.02-.47,2.14.17,1.12.66,1.97,1.09,1.9Z"/>
      <path class="cls-6" d="M63.68,10.46c-6.13,2.86-9.11-2.25-9.24-2.47-.14-.24-.44-.33-.68-.19-.24.13-.33.44-.19.68.03.05,2.22,3.84,6.57,3.84,1.17,0,2.49-.27,3.96-.96.25-.12.36-.42.24-.67-.12-.25-.42-.36-.67-.24Z"/>
    </g>
  </g>
</svg>