<?xml version="1.0" encoding="UTF-8"?>
<svg id="Capa_2" data-name="Capa 2" xmlns="http://www.w3.org/2000/svg" viewBox="0 0 55.3 34.24">
  <defs>
    <style>
      .cls-1 {
        fill: #ff7d5e;
      }

      .cls-1, .cls-2 {
        stroke-width: 0px;
      }

      .cls-2 {
        fill: #161946;
      }
    </style>
  </defs>
  <g id="Capa_1-2" data-name="Capa 1">
    <g>
      <path class="cls-2" d="M16.55,9.05c.21-.14.33-.37.33-.62s-.12-.49-.33-.62c-2.48-1.65-5.84-5.01-7.49-7.49-.28-.42-.97-.42-1.25,0C6.17,2.79,2.81,6.15.33,7.8c-.21.14-.33.37-.33.62s.12.49.33.62c2.48,1.65,5.83,5.01,7.49,7.49.14.21.37.33.62.33s.49-.12.62-.33c1.65-2.48,5.01-5.83,7.49-7.49ZM8.44,14.82c-1.66-2.2-4.2-4.74-6.4-6.4,2.2-1.66,4.74-4.2,6.4-6.4,1.66,2.2,4.2,4.74,6.4,6.4-2.2,1.66-4.74,4.2-6.4,6.4Z"/>
      <path class="cls-1" d="M15.23,22.68c-.85,1.28-2.56,2.99-3.85,3.85,1.28.85,2.99,2.56,3.85,3.85.85-1.28,2.56-2.99,3.85-3.85-1.28-.85-2.99-2.56-3.85-3.85Z"/>
      <path class="cls-2" d="M30.09,10.35c1.77,0,3.44.69,4.7,1.95.39.39,1.02.39,1.41,0s.39-1.02,0-1.41c-1.63-1.63-3.8-2.53-6.11-2.53s-4.48.9-6.11,2.53c-.39.39-.39,1.02,0,1.41.2.2.45.29.71.29s.51-.1.71-.29c1.26-1.26,2.92-1.95,4.7-1.95Z"/>
      <path class="cls-2" d="M25.53,19.81s-.02.02-.03.02c-.06.06-.13.11-.19.18-.12.12-.19.26-.23.4-.24.41-.38.88-.38,1.39,0,1.54,1.25,2.79,2.79,2.79s2.79-1.25,2.79-2.79c0-.79-.33-1.49-.85-2,2.29-.72,4.89-.18,6.7,1.63.2.2.45.29.71.29s.51-.1.71-.29c.39-.39.39-1.02,0-1.41-3.3-3.3-8.62-3.36-12-.2Z"/>
      <path class="cls-2" d="M42.88,12.29c1.25-1.26,2.92-1.95,4.7-1.95s3.44.69,4.7,1.95c.2.2.45.29.71.29s.51-.1.71-.29c.39-.39.39-1.02,0-1.41-1.63-1.63-3.8-2.53-6.11-2.53s-4.48.9-6.11,2.53c-.39.39-.39,1.02,0,1.41s1.02.39,1.41,0Z"/>
      <path class="cls-2" d="M55,20.01c-3.3-3.3-8.62-3.36-12.01-.19,0,0-.01.01-.02.02-.06.06-.13.11-.2.18-.12.12-.19.26-.23.4-.24.41-.38.88-.38,1.38,0,1.54,1.25,2.79,2.79,2.79s2.79-1.25,2.79-2.79c0-.79-.33-1.5-.86-2,2.29-.72,4.89-.18,6.71,1.63.2.2.45.29.71.29s.51-.1.71-.29c.39-.39.39-1.02,0-1.41Z"/>
      <path class="cls-2" d="M52.93,29.53c-.47-.29-1.08-.15-1.38.31-2.22,3.51-6.68,2.16-6.87,2.1-.52-.17-1.09.12-1.25.65-.17.53.12,1.09.65,1.26.69.22,1.66.4,2.73.4,2.18,0,4.81-.74,6.45-3.33.29-.47.16-1.08-.31-1.38Z"/>
    </g>
  </g>
</svg>