<svg width="137" height="17" viewBox="0 0 137 17" fill="none" xmlns="http://www.w3.org/2000/svg">
<path d="M37.0938 16.4371C36.3711 16.4371 35.6615 16.4371 34.952 16.4371C34.768 16.4371 34.7418 16.3057 34.6892 16.1874C34.4527 15.6093 34.203 15.0442 33.9665 14.4661C33.5723 13.5332 33.1781 12.6134 32.7971 11.6805C32.7051 11.4571 32.6 11.3651 32.3503 11.3783C31.4568 11.3914 30.5502 11.3783 29.6567 11.3783C29.3019 11.3783 29.3019 11.3783 29.3019 11.733C29.3019 12.8631 29.3019 13.9799 29.3019 15.1099C29.3019 15.4253 29.3019 15.7275 29.3019 16.0429C29.3019 16.3057 29.1705 16.4371 28.9077 16.4371C28.4215 16.4371 27.9222 16.4371 27.4361 16.4371C27.1864 16.4371 27.1864 16.4371 27.1733 16.1743C27.1733 16.1086 27.1733 16.0297 27.1733 15.964C27.1733 12.009 27.1733 8.05392 27.1733 4.09886C27.1733 3.56013 27.1207 3.62583 27.6594 3.62583C28.9997 3.62583 30.3399 3.62583 31.6802 3.59955C32.2583 3.59955 32.8234 3.56013 33.4015 3.59955C34.7155 3.67839 35.701 4.32224 36.3711 5.41283C37.1989 6.7925 37.1857 8.21159 36.3579 9.6044C36.0557 10.1169 35.609 10.4979 35.0834 10.787C34.7943 10.9447 34.7943 10.9447 34.9257 11.2731C35.425 12.4557 35.9375 13.6252 36.4368 14.8077C36.6207 15.2413 36.8047 15.6618 36.9886 16.0954C37.0281 16.1874 37.0938 16.2794 37.0806 16.4502L37.0938 16.4371ZM31.286 9.19707C31.851 9.19707 32.416 9.19707 32.9679 9.19707C33.1124 9.19707 33.257 9.17079 33.4015 9.15765C34.3476 9.03939 34.9914 8.18531 34.8206 7.26553C34.6761 6.47715 34.0848 5.91214 33.2701 5.84644C32.0218 5.74132 30.7604 5.82016 29.499 5.80702C29.3019 5.80702 29.2888 5.91214 29.2888 6.05668C29.2888 7.01588 29.2888 7.97508 29.2888 8.93428C29.2888 9.19707 29.2888 9.21021 29.5778 9.21021C30.1429 9.21021 30.7079 9.21021 31.2597 9.21021L31.286 9.19707Z" fill="#1E40AF"/>
<path d="M39.8516 9.99865C39.8516 8.89492 40.0092 7.75176 40.4166 6.66116C41.2312 4.51939 43.1628 3.24484 45.4359 3.41565C47.1572 3.54705 48.4187 4.45369 49.2859 5.92534C49.7458 6.71372 49.9823 7.58094 50.1005 8.47444C50.3239 10.0906 50.2451 11.6805 49.7064 13.231C49.1282 14.8998 48.0113 16.0166 46.3032 16.5028C43.8986 17.1861 41.3495 15.859 40.4166 13.4675C39.983 12.3638 39.8516 11.2206 39.8516 9.99865ZM48.0376 9.95923C48.0245 9.72272 48.0113 9.39422 47.9719 9.05259C47.8799 8.26421 47.6697 7.50211 47.2361 6.81884C46.1323 5.0844 43.7803 5.38661 42.8737 6.72686C42.6372 7.08163 42.4401 7.44955 42.3218 7.85688C41.9276 9.28911 41.8882 10.7213 42.2956 12.1536C42.4664 12.7711 42.7554 13.3361 43.2416 13.7829C44.3453 14.8341 46.1192 14.7158 47.0784 13.5332C47.3543 13.1916 47.5383 12.8106 47.6828 12.4032C47.9456 11.6411 48.0113 10.8659 48.0376 9.97237V9.95923Z" fill="#1E40AF"/>
<path d="M66.1172 10.1311C66.1435 8.84341 66.288 7.6477 66.761 6.51768C67.6151 4.46789 69.5072 3.28531 71.7147 3.42985C73.0418 3.52183 74.1061 4.12626 74.9865 5.11173C75.696 5.90012 76.0771 6.85932 76.2742 7.88421C76.6421 9.77633 76.6027 11.6553 75.9063 13.4686C75.2493 15.1768 74.0142 16.2411 72.214 16.5958C70.5453 16.9243 69.113 16.3988 67.891 15.2687C67.0107 14.4541 66.5771 13.3898 66.3406 12.2466C66.1829 11.5239 66.1435 10.8012 66.1303 10.1311H66.1172ZM68.3115 10.0917C68.3115 10.5516 68.3247 10.9983 68.4035 11.4582C68.5612 12.3123 68.8371 13.1007 69.4547 13.7445C70.5715 14.8877 72.4505 14.7563 73.3966 13.4817C73.7382 13.035 73.9485 12.5225 74.0799 11.9838C74.3426 10.9326 74.3558 9.86831 74.1981 8.80399C74.093 8.09445 73.8828 7.42432 73.4886 6.8199C72.398 5.13801 70.1379 5.41395 69.2182 6.64908C68.9948 6.95129 68.8108 7.26665 68.6794 7.62142C68.3772 8.42294 68.2984 9.25075 68.2984 10.0917H68.3115Z" fill="#1E40AF"/>
<path d="M15.1357 10.0237C15.1357 8.03965 15.1357 6.06869 15.1357 4.08459C15.1357 3.99262 15.1357 3.8875 15.1357 3.79552C15.1357 3.67726 15.1882 3.61157 15.3065 3.6247C15.3722 3.6247 15.451 3.6247 15.5167 3.6247C18.2103 3.6247 20.9171 3.6247 23.6108 3.6247C23.6502 3.6247 23.6765 3.6247 23.7159 3.6247C24.0312 3.6247 24.0312 3.6247 24.0312 3.9532C24.0312 4.46565 24.0312 4.9781 24.0312 5.50368C24.0312 5.8059 24.0312 5.81904 23.7028 5.81904C22.5859 5.81904 21.469 5.81904 20.3521 5.81904C19.4323 5.81904 18.5126 5.81904 17.5796 5.81904C17.238 5.81904 17.238 5.81904 17.238 6.14753C17.238 6.79138 17.238 7.44836 17.238 8.09221C17.238 8.39442 17.238 8.40756 17.5665 8.40756C18.5126 8.40756 19.4586 8.40756 20.4047 8.40756C20.4835 8.40756 20.5755 8.40756 20.6543 8.40756C20.8252 8.40756 20.8909 8.46012 20.8909 8.63094C20.8909 8.85431 20.8909 9.09083 20.8909 9.3142C20.8909 9.65584 20.8909 9.98433 20.8909 10.326C20.8909 10.6019 20.8909 10.6019 20.6018 10.6019C19.6689 10.6019 18.7359 10.6019 17.803 10.6019C17.4351 10.6019 17.2511 10.7815 17.2511 11.1406C17.2511 12.0604 17.2511 12.9802 17.2511 13.9131C17.2511 14.281 17.2511 14.281 17.6322 14.281C19.6951 14.281 21.7581 14.281 23.821 14.281C24.2809 14.281 24.2546 14.2153 24.2546 14.7278C24.2546 15.2139 24.2546 15.7132 24.2546 16.1994C24.2546 16.3834 24.2021 16.4753 24.005 16.4491C23.9524 16.4491 23.913 16.4491 23.8604 16.4491C21.0617 16.4491 18.276 16.4491 15.4773 16.4491C15.4773 16.4491 15.451 16.4491 15.4379 16.4491C15.2189 16.4491 15.1094 16.3352 15.1094 16.1074C15.1094 16.0286 15.1094 15.9366 15.1094 15.8578C15.1094 13.9131 15.1094 11.9684 15.1094 10.0369L15.1357 10.0237Z" fill="#1E40AF"/>
<path d="M83.929 16.7409C82.1157 16.7146 80.5521 16.0971 79.3301 14.7305C78.9359 14.2969 78.949 14.2969 79.3958 13.929C79.7243 13.6531 80.0659 13.3771 80.3944 13.1143C80.6966 12.8647 80.6178 12.8778 80.9068 13.1406C81.0514 13.272 81.1959 13.4034 81.3273 13.5348C81.9055 14.0998 82.6281 14.3889 83.4165 14.4809C84.2049 14.5728 84.9801 14.494 85.7028 14.1392C86.0576 13.9553 86.373 13.7188 86.5832 13.364C86.9642 12.7201 86.8066 12.1551 86.1627 11.7741C85.9393 11.6427 85.6897 11.5507 85.44 11.4719C84.3889 11.1171 83.2983 10.8412 82.2471 10.4733C81.8398 10.3287 81.4456 10.171 81.0645 9.96081C80.0265 9.3958 79.5009 8.51544 79.4483 7.346C79.3564 5.54586 80.4075 4.06107 82.3916 3.58804C84.494 3.08874 86.3861 3.58804 87.9891 5.05969C88.0286 5.09911 88.068 5.13853 88.1205 5.19109C88.2125 5.26993 88.2125 5.34877 88.1205 5.44074C87.7264 5.88749 87.3453 6.32111 86.9642 6.76786C86.8723 6.88611 86.7934 6.89925 86.662 6.79414C86.3335 6.5182 85.9656 6.28169 85.5714 6.09773C84.6648 5.67726 83.7319 5.58528 82.7727 5.86122C82.4967 5.94005 82.2602 6.07145 82.0631 6.28169C81.485 6.87297 81.6427 7.81903 82.3785 8.17381C82.7727 8.3709 83.18 8.47602 83.6005 8.60742C84.4414 8.87021 85.3086 9.08045 86.1364 9.38266C86.5832 9.54034 87.0299 9.73743 87.4504 9.96081C88.4885 10.5127 88.9352 11.4193 89.0009 12.5493C89.0535 13.5874 88.6856 14.4809 87.976 15.2167C87.1876 16.0314 86.189 16.4518 85.0984 16.6489C84.7174 16.7146 84.3363 16.7409 83.9553 16.7409H83.929Z" fill="#1E40AF"/>
<path d="M100.388 16.4525C100.572 15.9795 100.73 15.5853 100.887 15.1911C102.372 11.4595 103.857 7.74092 105.342 4.00924C105.355 3.96982 105.368 3.94354 105.381 3.90412C105.434 3.70702 105.539 3.61505 105.762 3.62818C106.34 3.64132 106.919 3.62818 107.484 3.62818C107.773 3.62818 107.773 3.62819 107.891 3.91726C108.758 6.11159 109.638 8.30592 110.506 10.4871C111.242 12.3398 111.977 14.1794 112.713 16.0321C112.766 16.1503 112.845 16.2686 112.805 16.4C112.687 16.4657 112.569 16.4394 112.45 16.4394C111.977 16.4394 111.491 16.4394 111.018 16.4394C110.571 16.4394 110.65 16.4525 110.506 16.0978C110.177 15.2831 109.862 14.4685 109.533 13.6669C109.389 13.2859 109.402 13.3384 109.073 13.3384C107.431 13.3384 105.789 13.3384 104.146 13.3384C103.87 13.3384 103.87 13.2727 103.739 13.6275C103.41 14.4685 103.069 15.3225 102.727 16.1635C102.622 16.4394 102.622 16.4394 102.307 16.4394C101.689 16.4394 101.058 16.4394 100.375 16.4394L100.388 16.4525ZM108.495 11.2098C107.878 9.64618 107.286 8.12197 106.669 6.55834C106.367 7.09707 104.882 10.947 104.869 11.2098H108.482H108.495Z" fill="#1E40AF"/>
<path d="M12.3884 16.4367C11.7051 16.4367 11.035 16.4367 10.3648 16.4367C10.1809 16.4367 10.1546 16.3053 10.102 16.1871C9.77355 15.3461 9.44506 14.5183 9.10343 13.6774C8.94575 13.2701 9.01145 13.3226 8.59098 13.3226C6.98793 13.3226 5.38489 13.3226 3.7687 13.3226C3.37451 13.3226 3.42707 13.2701 3.28253 13.6511C2.95404 14.4789 2.61241 15.3199 2.28391 16.1608C2.20508 16.3579 2.12624 16.4499 1.90286 16.4367C1.27216 16.4236 0.64145 16.4367 0.0107434 16.4367C-0.0286758 16.2791 0.0501625 16.1739 0.0895817 16.0688C1.69263 12.0218 3.29567 7.98789 4.91186 3.954C5.06953 3.57295 5.01698 3.6255 5.39803 3.6255C5.93676 3.6255 6.47548 3.6255 7.01421 3.6255C7.32957 3.6255 7.32957 3.6255 7.44782 3.92772C8.19679 5.8067 8.94575 7.68568 9.69472 9.56466C10.5488 11.7064 11.4029 13.8613 12.257 16.0163C12.3095 16.1345 12.3752 16.2528 12.3752 16.4499L12.3884 16.4367ZM6.26525 6.58194H6.18641C5.59512 8.10615 4.9907 9.63035 4.39941 11.1546C4.78046 11.2334 7.76318 11.2334 8.05225 11.1546C7.46096 9.63035 6.85654 8.10615 6.26525 6.59508V6.58194Z" fill="#1E40AF"/>
<path d="M127.109 10.0382C127.109 8.05411 127.109 6.08315 127.109 4.09905C127.109 4.00707 127.109 3.90196 127.109 3.80998C127.109 3.66544 127.175 3.61288 127.306 3.62602C127.372 3.62602 127.451 3.62602 127.517 3.62602C130.197 3.62602 132.891 3.62602 135.571 3.62602C135.992 3.62602 136.005 3.56032 136.005 4.04649C136.005 4.51952 136.005 5.00569 136.005 5.47872C136.005 5.78093 136.005 5.79407 135.676 5.79407C134.691 5.79407 133.706 5.79407 132.733 5.79407C131.682 5.79407 130.618 5.79407 129.566 5.79407C129.225 5.79407 129.225 5.79407 129.225 6.12257C129.225 6.76641 129.225 7.4234 129.225 8.06725C129.225 8.3826 129.225 8.3826 129.553 8.3826C130.499 8.3826 131.445 8.3826 132.392 8.3826C132.47 8.3826 132.562 8.3826 132.641 8.3826C132.799 8.3826 132.878 8.43516 132.878 8.60597C132.878 9.17098 132.878 9.73599 132.878 10.301C132.878 10.5769 132.878 10.5769 132.589 10.5769C131.656 10.5769 130.723 10.5769 129.777 10.5769C129.409 10.5769 129.225 10.7565 129.225 11.1157C129.225 12.0092 129.225 12.9158 129.225 13.8093C129.225 14.2955 129.185 14.2429 129.672 14.2429C131.695 14.2429 133.719 14.2429 135.755 14.2429C135.847 14.2429 135.952 14.2429 136.044 14.2429C136.176 14.2429 136.241 14.2955 136.241 14.44C136.241 15.0444 136.241 15.6357 136.241 16.2401C136.241 16.3847 136.176 16.4372 136.044 16.4241C135.979 16.4241 135.9 16.4241 135.834 16.4241C133.062 16.4241 130.289 16.4241 127.53 16.4241C127.464 16.4241 127.385 16.4241 127.32 16.4241C127.188 16.4241 127.123 16.3715 127.123 16.2401C127.123 16.1482 127.123 16.0431 127.123 15.9511C127.123 13.967 127.123 11.996 127.123 10.0119L127.109 10.0382Z" fill="#1E40AF"/>
<path d="M53.5859 10.0246C53.5859 8.0799 53.5859 6.13522 53.5859 4.20368C53.5859 4.13798 53.5859 4.05914 53.5859 3.99344C53.5859 3.63867 53.5859 3.63867 53.9407 3.63867C55.9117 3.63867 57.8695 3.63867 59.8404 3.63867C61.1807 3.63867 62.7969 4.55845 63.3487 6.04324C63.8481 7.39663 63.6904 9.24933 62.4552 10.3662C61.7326 11.0101 60.8916 11.378 59.9193 11.3911C58.7104 11.4042 57.5016 11.3911 56.2927 11.3911C56.227 11.3911 56.1482 11.3911 56.0825 11.3911C55.7277 11.3911 55.7277 11.3911 55.7277 11.7459C55.7277 13.1387 55.7277 14.5315 55.7277 15.9112C55.7277 15.99 55.7277 16.082 55.7277 16.1608C55.7277 16.4368 55.7277 16.4368 55.4386 16.4368C54.9525 16.4368 54.4532 16.4368 53.967 16.4368C53.6122 16.4368 53.6122 16.4368 53.6122 16.0951C53.6122 15.0702 53.6122 14.0585 53.6122 13.0336C53.6122 12.0218 53.6122 11.0232 53.6122 10.0114L53.5859 10.0246ZM57.8038 9.20991C58.3294 9.20991 58.855 9.20991 59.3806 9.20991C59.5908 9.20991 59.8142 9.19677 60.0244 9.15735C61.1676 8.9734 61.7851 7.71198 61.1938 6.71337C60.8522 6.13522 60.3529 5.80673 59.6565 5.80673C58.4214 5.80673 57.1862 5.80673 55.9642 5.80673C55.7146 5.80673 55.7014 5.80673 55.7014 6.06952C55.7014 7.02872 55.7014 7.98792 55.7014 8.94712C55.7014 9.19677 55.7014 9.20991 55.9774 9.20991C56.5818 9.20991 57.1994 9.20991 57.8038 9.20991Z" fill="#1E40AF"/>
<path d="M115.547 10.0391C115.547 8.05504 115.547 6.08408 115.547 4.09998C115.547 4.008 115.547 3.90289 115.547 3.81091C115.547 3.66637 115.613 3.62695 115.744 3.62695C116.322 3.62695 116.9 3.62695 117.465 3.62695C117.61 3.62695 117.689 3.67951 117.689 3.83719C117.689 3.92917 117.689 4.03428 117.689 4.12626C117.689 7.35863 117.689 10.6041 117.689 13.8365C117.689 14.3358 117.636 14.2833 118.135 14.2833C120.185 14.2833 122.235 14.2833 124.285 14.2833C124.705 14.2833 124.692 14.2307 124.692 14.6906C124.692 15.1899 124.692 15.7024 124.692 16.2017C124.692 16.3856 124.653 16.4776 124.456 16.4513C124.35 16.4513 124.245 16.4513 124.127 16.4513C121.447 16.4513 118.753 16.4513 116.072 16.4513C115.994 16.4513 115.902 16.4513 115.823 16.4513C115.56 16.4513 115.56 16.4513 115.56 16.1885C115.56 15.7943 115.56 15.4001 115.56 15.0059C115.56 13.3503 115.56 11.6947 115.56 10.0391H115.547Z" fill="#1E40AF"/>
<path d="M96.5617 11.1429C96.5617 12.7459 96.5617 14.349 96.5617 15.9651C96.5617 16.044 96.5617 16.136 96.5617 16.2148C96.5748 16.3856 96.5091 16.4513 96.3383 16.4513C95.7733 16.4513 95.2083 16.4513 94.6433 16.4513C94.4856 16.4513 94.433 16.3856 94.433 16.2411C94.433 16.136 94.433 16.0308 94.433 15.9126C94.433 12.6934 94.433 9.46099 94.433 6.24176C94.433 5.78187 94.4593 5.80815 94.0126 5.80815C93.0928 5.80815 92.173 5.80815 91.2401 5.80815C90.9116 5.80815 90.9116 5.80815 90.8984 5.46651C90.8984 4.9672 90.8984 4.45476 90.8984 3.95545C90.8984 3.62695 90.8984 3.62695 91.2401 3.62695C92.3964 3.62695 93.5395 3.62695 94.6958 3.62695C96.3251 3.62695 97.9545 3.62695 99.5838 3.62695C99.6495 3.62695 99.702 3.62695 99.7677 3.62695C100.083 3.62695 100.083 3.62695 100.083 3.94231C100.083 4.4679 100.083 4.99348 100.083 5.51907C100.083 5.78187 100.083 5.79501 99.794 5.79501C98.8743 5.79501 97.9545 5.79501 97.0216 5.79501C96.9296 5.79501 96.8245 5.79501 96.7325 5.79501C96.6011 5.79501 96.5354 5.86071 96.5485 5.9921C96.5485 6.07094 96.5485 6.16292 96.5485 6.24176C96.5485 7.87108 96.5485 9.50041 96.5485 11.1297L96.5617 11.1429Z" fill="#1E40AF"/>
<path d="M22.2554 0C22.2817 0.118257 22.2423 0.170816 22.2028 0.210235C21.7035 0.91978 21.2042 1.61619 20.7049 2.32573C20.6392 2.41771 20.5735 2.53597 20.429 2.53597C19.8508 2.53597 19.2595 2.53597 18.6814 2.53597C18.6288 2.39143 18.7077 2.32573 18.7602 2.24689C19.1281 1.58991 19.4961 0.93292 19.8508 0.262794C19.9559 0.0788383 20.0742 0 20.2844 0C20.9414 0 21.5984 0 22.2554 0Z" fill="#1E40AF"/>
</svg>
