<svg width="101" height="20" viewBox="0 0 101 20" fill="none" xmlns="http://www.w3.org/2000/svg">
<path d="M71.7087 13.3662C69.6644 16.3417 65.4622 17.2049 62.3049 14.6382C62.18 14.8312 62.2368 15.0357 62.2368 15.2174C62.2368 16.637 62.2254 18.068 62.2368 19.4877C62.2368 19.8625 62.1459 19.9987 61.7484 19.9987C60.2379 19.9987 60.2379 20.0215 60.2379 18.5223C60.2379 15.5581 60.1925 12.6052 60.2833 9.65236C60.3742 6.98343 62.1346 4.75742 64.5423 4.03056C67.1431 3.23556 69.7098 4.05328 71.4134 6.21114C71.4929 6.31335 71.5724 6.40421 71.6859 6.5405C72.2879 5.73414 72.9693 5.05271 73.8211 4.55299C76.456 3.03113 79.954 3.68985 81.7825 6.10893C82.1005 6.52914 82.2254 6.44964 82.5093 6.09757C84.1221 4.06463 86.6774 3.28099 89.2214 3.99649C91.4929 4.64385 93.2759 6.80171 93.5712 9.23215C94.0482 13.2526 90.5275 16.6597 86.5071 16.0805C84.8148 15.8307 83.4633 15.0243 82.4298 13.6728C82.2254 13.4116 82.1232 13.3207 81.896 13.6387C79.4997 16.9777 74.2867 17.0118 71.8336 13.5024C71.7995 13.457 71.7654 13.4229 71.6973 13.3434L71.7087 13.3662ZM91.6405 9.98172C91.6291 7.61943 89.7325 5.68871 87.4156 5.68871C85.042 5.68871 83.1453 7.63079 83.1567 10.0612C83.1567 12.3327 85.1328 14.2293 87.4611 14.2066C89.7211 14.1952 91.6519 12.2304 91.6405 9.98172ZM76.8875 14.2066C79.2044 14.2293 81.1692 12.2986 81.2033 9.97036C81.2373 7.71029 79.2498 5.70007 76.9784 5.68871C74.6729 5.67735 72.7308 7.574 72.6854 9.87951C72.64 12.2077 74.5593 14.1839 76.8875 14.2066ZM70.7092 9.84544C70.6524 7.56264 68.6649 5.63192 66.4389 5.68871C64.088 5.75685 62.1686 7.71029 62.2141 10.0044C62.2709 12.3894 64.2584 14.2634 66.6661 14.2066C68.9148 14.1384 70.766 12.1396 70.7092 9.84544Z" fill="#1E40AF"/>
<path d="M49.8496 10.3572C48.2824 10.3572 46.7037 10.3572 45.1364 10.3572C44.7389 10.3572 44.6481 10.448 44.7389 10.8682C45.1251 12.5604 46.5674 13.9914 48.1801 14.2186C50.2017 14.5025 51.9734 13.6053 52.8366 11.8109C53.0069 11.4474 53.1887 11.2998 53.5748 11.3452C53.7792 11.3679 53.9837 11.3452 54.1881 11.3452C54.7332 11.3452 54.9074 11.6064 54.7105 12.1289C53.8019 14.6047 51.3601 16.1834 48.7139 16.0925C45.6929 15.9903 43.1489 13.628 42.8423 10.5843C42.5697 7.83586 44.1824 5.05335 47.1239 4.09935C50.9626 2.85006 55.108 5.84835 55.0967 9.85744C55.0967 10.2777 54.9717 10.3912 54.5629 10.3799C52.9956 10.3572 51.4169 10.3799 49.8496 10.3799V10.3572ZM48.9524 8.55136C50.1336 8.55136 51.3147 8.52865 52.4959 8.56272C52.9956 8.57408 53.0069 8.40372 52.8139 8.04029C51.9734 6.50707 50.6787 5.63257 48.9297 5.64392C47.1807 5.66664 45.886 6.52978 45.0683 8.08572C44.8866 8.42643 44.9093 8.56272 45.3408 8.56272C46.5447 8.54 47.7486 8.56272 48.9411 8.56272L48.9524 8.55136Z" fill="#1E40AF"/>
<path d="M37.604 13.5255C38.081 12.3443 38.5012 11.2881 38.9215 10.2319C39.6597 8.36931 40.4093 6.50673 41.1361 4.64415C41.2383 4.3943 41.3633 4.30344 41.6245 4.30344C42.1015 4.30344 42.5898 4.3148 43.0668 4.30344C43.453 4.29208 43.4984 4.41701 43.3621 4.75773C42.1015 7.90366 40.8635 11.0496 39.6143 14.1842C39.4098 14.6953 39.194 15.2063 39.0123 15.7288C38.9215 15.9786 38.7852 16.0695 38.524 16.0695C37.9107 16.0581 37.3087 16.0581 36.6955 16.0695C36.4229 16.0695 36.332 15.9673 36.2298 15.7174C34.7875 12.0717 33.3451 8.43745 31.8914 4.80315C31.7324 4.3943 31.8346 4.26937 32.2548 4.3148C32.4933 4.33751 32.7318 4.3148 32.9703 4.3148C33.9925 4.3148 33.9697 4.3148 34.3559 5.29151C35.4121 7.99452 36.491 10.6862 37.6267 13.5368L37.604 13.5255Z" fill="#1E40AF"/>
<path d="M21.0078 6.93862C21.0078 4.87162 21.0192 2.79325 21.0078 0.726249C21.0078 0.317391 21.11 0.147033 21.5302 0.203819C21.9959 0.271962 22.6319 -0.000610024 22.9045 0.328748C23.1316 0.60132 22.984 1.21461 22.984 1.66889C22.984 5.34862 22.984 9.02834 22.984 12.7081C22.984 13.7984 23.3133 14.1164 24.4036 14.1277C25.6188 14.1277 26.8454 14.1391 28.0606 14.1277C28.424 14.1277 28.5717 14.1959 28.5717 14.6047C28.5717 16.0584 28.583 16.0584 27.152 16.0584C26.0845 16.0584 25.0055 16.0584 23.938 16.0584C22.1549 16.0584 21.0419 14.9795 21.0192 13.1737C20.9965 11.1067 21.0192 9.02834 21.0192 6.96134L21.0078 6.93862Z" fill="#1E40AF"/>
<path d="M0.0113572 7.58634C0.0113572 5.34897 0.0227143 3.11161 0 0.885605C0 0.499461 0.102215 0.419961 0.454287 0.419961C1.48779 0.419961 1.47643 0.397247 1.47643 1.44211C1.47643 5.32626 1.47643 9.19905 1.47643 13.0832C1.47643 14.1849 1.73765 14.4461 2.83929 14.4461C5.01987 14.4461 7.20045 14.4461 9.38102 14.4347C9.80124 14.4347 9.94888 14.5256 9.93752 14.9799C9.91481 15.9452 9.93752 15.9452 8.97217 15.9452C6.60987 15.9452 4.23622 15.9452 1.87393 15.9452C0.60193 15.9452 0 15.3433 0 14.0826C0 11.9248 0 9.75556 0 7.59769L0.0113572 7.58634Z" fill="#1E40AF"/>
<path d="M17.6528 8.79052C17.6528 10.9711 17.6414 13.1517 17.6528 15.3322C17.6528 15.7865 17.5392 15.9342 17.0735 15.9115C16.1763 15.8774 16.1763 15.9115 16.1763 14.9915C16.1763 11.0279 16.1763 7.07559 16.1763 3.11193C16.1763 2.16929 15.9038 1.89672 14.9611 1.89672C12.7238 1.89672 10.4864 1.88536 8.24903 1.89672C7.8061 1.89672 7.69252 1.78314 7.70388 1.34021C7.74931 0.431641 7.71524 0.431641 8.65788 0.431641C11.0202 0.431641 13.3938 0.431641 15.7561 0.431641C17.0395 0.431641 17.6414 1.04493 17.6414 2.33965C17.6414 4.48615 17.6414 6.63266 17.6414 8.77916L17.6528 8.79052Z" fill="#1E40AF"/>
<path d="M15.7209 9.39229C15.7209 11.3912 15.7209 13.3787 15.7209 15.3775C15.7209 15.7977 15.63 15.9681 15.1757 15.9454C14.0627 15.9 14.2331 16.0817 14.2217 15.0141C14.2217 11.6524 14.2217 8.29065 14.2217 4.92892C14.2217 4.05442 14.0286 3.86135 13.1428 3.84999C11.5187 3.84999 9.89463 3.83863 8.2592 3.84999C7.85034 3.84999 7.65727 3.77049 7.69134 3.30485C7.75948 2.31677 7.45284 2.32813 8.67941 2.32813C10.5988 2.32813 12.5181 2.32813 14.4489 2.32813C15.4369 2.32813 15.6981 2.58935 15.7095 3.56606C15.7095 5.50814 15.7095 7.45022 15.7095 9.39229H15.7209Z" fill="#1E40AF"/>
<path d="M94.4297 8.0871C94.4297 5.61124 94.4297 3.13537 94.4297 0.648153C94.4297 0.262009 94.5319 0.148438 94.918 0.148438C96.349 0.159795 96.3604 0.148438 96.349 1.5908C96.349 6.24724 96.3377 10.915 96.349 15.5715C96.349 15.9463 96.2468 16.0371 95.8948 16.0371C94.441 16.0371 94.441 16.0598 94.441 14.6288C94.441 12.4483 94.441 10.2677 94.441 8.0871H94.4297Z" fill="#1E40AF"/>
<path d="M1.95312 6.92794C1.95312 4.92908 1.95312 2.93022 1.95312 0.931356C1.95312 0.545212 2.05534 0.431641 2.44148 0.431641C3.44091 0.431641 3.44091 0.431641 3.44091 1.41971C3.44091 4.77008 3.44091 8.12045 3.44091 11.4595C3.44091 12.368 3.55449 12.4816 4.46306 12.4816C6.08714 12.4816 7.72257 12.493 9.34664 12.4816C9.76686 12.4816 9.92586 12.5725 9.9145 13.0267C9.88043 13.9694 9.9145 13.9694 8.99457 13.9694C7.07521 13.9694 5.14449 13.9694 3.22513 13.9694C2.16891 13.9694 1.96448 13.7536 1.96448 12.6974C1.96448 10.778 1.96448 8.84731 1.96448 6.92794H1.95312Z" fill="#1E40AF"/>
<path d="M55.9609 11.2789C55.9609 9.92739 55.9609 8.57589 55.9609 7.22439C55.9609 5.45267 57.0626 4.35102 58.8343 4.35102C59.2545 4.35102 59.6861 4.39645 60.1063 4.35102C60.5265 4.31695 60.6401 4.44188 60.6401 4.86209C60.6401 6.27038 60.6401 6.27038 59.2318 6.27038C58.2892 6.27038 57.8917 6.66788 57.8917 7.63324C57.8917 10.2795 57.8803 12.9257 57.8917 15.5606C57.8917 15.9581 57.8122 16.1057 57.3806 16.1057C55.9609 16.1057 55.9609 16.1171 55.9609 14.7088C55.9609 13.5617 55.9609 12.4146 55.9609 11.2675V11.2789Z" fill="#1E40AF"/>
<path d="M5.38833 5.38311C5.38833 6.83683 5.38833 8.30191 5.38833 9.75562C5.38833 10.3576 5.53597 10.5052 6.1379 10.5052C7.26226 10.5052 8.38662 10.5052 9.52234 10.5052C9.84034 10.5052 9.96527 10.5733 9.96527 10.9368C9.95391 12.0725 9.96527 12.0725 8.81819 12.0725C7.4894 12.0725 6.16061 12.0725 4.83182 12.0725C4.10496 12.0725 3.85511 11.8226 3.84375 11.1298C3.84375 7.71133 3.84375 4.29282 3.84375 0.885673C3.84375 0.488172 3.98004 0.385958 4.35482 0.397315C5.60411 0.431386 5.38833 0.249672 5.39968 1.4081C5.41104 2.73689 5.39968 4.06568 5.39968 5.39447L5.38833 5.38311Z" fill="#1E40AF"/>
<path d="M13.8182 10.3006C13.8182 12.0041 13.8069 13.6963 13.8182 15.3999C13.8182 15.8315 13.7274 15.9905 13.2731 15.9678C12.1033 15.9224 12.2736 16.1268 12.2736 14.9797C12.2736 12.2086 12.2736 9.43741 12.2736 6.66626C12.2736 5.95075 12.1828 5.8599 11.4786 5.8599C10.3884 5.8599 9.29807 5.83718 8.20778 5.8599C7.81028 5.8599 7.65128 5.7804 7.67399 5.34882C7.71942 4.28125 7.6967 4.28125 8.76428 4.28125C10.0931 4.28125 11.4219 4.28125 12.7506 4.28125C13.5797 4.28125 13.8069 4.50839 13.8069 5.31475C13.8069 6.9729 13.8069 8.6424 13.8069 10.3006H13.8182Z" fill="#1E40AF"/>
<path d="M29.1953 10.143C29.1953 8.34856 29.1953 6.55413 29.1953 4.77105C29.1953 4.45305 29.2407 4.32812 29.6042 4.32812C31.092 4.32812 31.092 4.32813 31.092 5.82727C31.092 9.06407 31.092 12.2895 31.092 15.5263C31.092 15.9352 31.0011 16.0601 30.5809 16.0487C29.1953 16.0487 29.1953 16.0487 29.1953 14.6859C29.1953 13.1754 29.1953 11.6535 29.1953 10.143Z" fill="#1E40AF"/>
<path d="M11.8809 11.3114C11.8809 12.6743 11.8582 14.0485 11.8923 15.4113C11.8923 15.8429 11.7674 15.9338 11.3585 15.9338C10.3704 15.9224 10.3704 15.9338 10.3704 14.9343C10.3704 12.7765 10.3704 10.6186 10.3704 8.44939C10.3704 7.80203 10.2909 7.72253 9.63222 7.72253C9.10979 7.72253 8.59872 7.72253 8.07629 7.72253C7.81507 7.72253 7.73557 7.64303 7.71286 7.37045C7.64472 6.24609 7.63336 6.24609 8.76907 6.24609C9.53001 6.24609 10.2796 6.24609 11.0405 6.24609C11.6538 6.24609 11.8696 6.47324 11.8696 7.08652C11.8696 8.49481 11.8696 9.89175 11.8696 11.3L11.8809 11.3114Z" fill="#1E40AF"/>
<path d="M5.79688 5.05415C5.79688 3.70264 5.80823 2.35114 5.79688 0.999638C5.79688 0.59078 5.86502 0.409065 6.33066 0.420422C7.26195 0.443136 7.26195 0.420422 7.26195 1.36307C7.26195 3.48686 7.26195 5.62201 7.26195 7.7458C7.26195 8.5408 7.34145 8.6203 8.15917 8.6203C8.62481 8.6203 9.0791 8.63166 9.54474 8.6203C9.82867 8.6203 9.91953 8.71116 9.93089 9.00644C9.96496 10.1081 9.97631 10.1081 8.87467 10.1081C8.14781 10.1081 7.43231 10.1308 6.71681 10.0967C5.91045 10.0627 5.80823 9.92638 5.80823 9.12002C5.80823 7.76851 5.80823 6.41701 5.80823 5.06551L5.79688 5.05415Z" fill="#1E40AF"/>
<path d="M97.0703 1.52186C97.0703 0.636002 97.6609 0.0113572 98.5354 0C99.4894 0 100.114 0.60193 100.114 1.52186C100.114 2.38501 99.478 3.02101 98.6149 3.03237C97.7177 3.03237 97.0817 2.41908 97.0817 1.52186H97.0703ZM99.4099 2.40772C99.478 2.28279 99.5462 2.14651 99.6143 2.02158C99.8528 1.57865 99.7847 1.15843 99.4667 0.795002C99.1714 0.44293 98.7966 0.261215 98.331 0.386144C97.8426 0.52243 97.5132 0.840431 97.4337 1.34015C97.377 1.68086 97.4337 2.01022 97.854 2.24872C97.854 1.83986 97.8426 1.5105 97.854 1.18115C97.854 0.999431 97.7404 0.715502 98.047 0.68143C98.3877 0.647359 98.7625 0.556502 99.0578 0.817716C99.2622 1.01079 99.2509 1.28336 99.0692 1.46508C98.8875 1.65815 98.967 1.76036 99.0919 1.91936C99.2055 2.05565 99.2963 2.22601 99.3872 2.38501C99.0692 2.41908 98.8193 2.31686 98.6717 2.01022C98.6035 1.86258 98.5127 1.65815 98.3196 1.76036C98.0925 1.88529 98.3537 2.23736 98.0925 2.43044C98.013 2.48722 98.2287 2.60079 98.3423 2.63486C98.7285 2.74844 99.0351 2.48722 99.3758 2.38501L99.4099 2.40772Z" fill="#1E40AF"/>
<path d="M29.1565 1.15836C29.1565 0.507213 29.4896 0.181641 30.1559 0.181641C30.8222 0.181641 31.144 0.503427 31.1213 1.147C31.0986 1.79057 30.7427 2.13507 30.0537 2.1805C29.3647 2.22593 29.0656 1.88522 29.1565 1.15836Z" fill="#1E40AF"/>
</svg>
