<svg width="74" height="20" viewBox="0 0 74 20" fill="none" xmlns="http://www.w3.org/2000/svg">
<path d="M73.7081 15.0197C73.6118 15.2844 73.6238 15.5611 73.5757 15.8258C73.1426 17.9916 71.5182 19.1226 69.7977 19.4715C69.2081 19.5919 68.6185 19.64 68.0169 19.64C66.0437 19.64 64.0825 19.64 62.1092 19.64C61.8926 19.64 61.7843 19.6039 61.8084 19.3512C61.8325 18.9301 61.7482 18.9662 62.2175 18.9662C62.6907 18.9662 62.9274 18.7336 62.9274 18.2683C62.9274 12.7817 62.9274 7.28311 62.9274 1.79651C62.9274 1.51576 62.779 1.37539 62.4822 1.37539C62.41 1.37539 62.3498 1.37539 62.2776 1.37539C61.7843 1.37539 61.7964 1.37539 61.8084 0.882074C61.8084 0.713626 61.8686 0.665498 62.025 0.67753C62.0611 0.67753 62.0972 0.67753 62.1333 0.67753C63.6854 0.67753 65.2496 0.67753 66.8017 0.67753C67.5838 0.67753 68.3538 0.725658 69.1118 0.91817C71.049 1.41148 72.2763 2.84329 72.4808 4.84061C72.6011 6.10397 72.3966 7.27107 71.6025 8.30583C71.2295 8.79914 70.7482 9.1601 70.1947 9.44887C70.1105 9.497 70.0263 9.53309 69.942 9.58122C69.93 9.58122 69.93 9.60528 69.9059 9.64138C70.303 9.78576 70.688 9.91812 71.061 10.1106C72.6131 10.9529 73.4193 12.2764 73.6479 13.997C73.6479 14.0692 73.6479 14.1534 73.7081 14.2135V15.0317V15.0197ZM63.6854 14.5023C63.6854 15.898 63.6854 17.2937 63.6854 18.6895C63.6854 18.9181 63.7576 18.9903 63.9742 18.9662C64.1667 18.9542 64.3712 18.9662 64.5637 18.9662C66.0677 18.9421 67.5717 19.0504 69.0757 18.882C70.1105 18.7616 71.049 18.4007 71.795 17.6427C72.5289 16.8967 72.8658 15.9823 72.9139 14.9595C73.0102 13.1307 72.3605 11.6628 70.7482 10.7122C69.8578 10.1828 68.8712 10.0625 67.8605 10.0505C66.561 10.0505 65.2616 10.0505 63.9621 10.0505C63.7456 10.0505 63.6854 10.1106 63.6854 10.3272C63.6854 11.7229 63.6854 13.1186 63.6854 14.5143V14.5023ZM63.6854 5.35798C63.6854 6.60931 63.6854 7.84861 63.6854 9.09994C63.6854 9.30448 63.7335 9.37668 63.9501 9.37668C64.5878 9.36464 65.2375 9.37668 65.8752 9.37668C66.7536 9.37668 67.6319 9.41277 68.5102 9.28042C69.918 9.07588 70.9527 8.35395 71.4821 7.00637C71.7709 6.28445 71.819 5.52643 71.6987 4.75638C71.5182 3.51709 70.9527 2.53046 69.8097 1.91683C69.0396 1.50774 68.2215 1.38742 67.3913 1.37539C66.2482 1.35132 65.1052 1.37539 63.9501 1.36335C63.7456 1.36335 63.6734 1.41148 63.6734 1.62806C63.6734 2.87939 63.6734 4.11869 63.6734 5.37002L63.6854 5.35798Z" fill="#1E40AF"/>
<path d="M36.335 0.339844C36.7802 0.412036 37.2254 0.472196 37.6706 0.55642C41.6652 1.31444 44.7574 4.55105 45.3229 8.58177C45.72 11.3852 45.1665 13.9721 43.4219 16.2462C41.8577 18.2675 39.7882 19.4347 37.2735 19.8437C36.8644 19.9159 36.4433 19.952 36.0342 20.0002H35.216C34.7829 19.952 34.3497 19.9039 33.9286 19.8437C30.0182 19.2903 26.7575 16.2341 25.9995 12.3358C25.3859 9.19541 25.9514 6.29569 28.0329 3.79303C29.6211 1.87994 31.7027 0.809092 34.1572 0.4361C34.3858 0.400004 34.6385 0.4361 34.8551 0.339844C35.3484 0.339844 35.8417 0.339844 36.335 0.339844ZM44.6491 10.182C44.6491 9.92936 44.6612 9.66466 44.6491 9.41198C44.6371 9.15931 44.601 8.90664 44.5529 8.65397C44.2039 6.51227 43.2534 4.6834 41.605 3.26362C39.4393 1.39866 36.9125 0.7369 34.1091 1.15802C31.4139 1.56711 29.3203 2.95079 27.8645 5.26094C26.6492 7.19809 26.2883 9.33979 26.6131 11.5898C26.938 13.8518 27.9607 15.7408 29.7174 17.1967C31.6786 18.8331 33.9647 19.4828 36.4914 19.2542C38.6211 19.0617 40.474 18.2315 41.9901 16.7274C43.8069 14.9347 44.6371 12.7328 44.6491 10.1941V10.182Z" fill="#1E40AF"/>
<path d="M0.859375 0.650391C1.43691 0.650391 2.00242 0.662423 2.57995 0.662423C2.92888 0.662423 2.92888 0.662423 2.92888 1.01135C2.92888 6.85891 2.92888 12.6944 2.92888 18.542C2.92888 19.0233 2.88075 18.9751 3.35 18.9751C5.55186 18.9751 7.74169 18.9751 9.94355 18.9751C10.1962 18.9751 10.2925 18.915 10.2684 18.6503C10.2443 18.4337 10.2684 18.2051 10.2684 17.9885C10.2684 17.8441 10.3045 17.796 10.4609 17.796C10.9663 17.7719 10.9663 17.7719 10.9663 18.2653C10.9663 18.6503 10.9663 19.0353 10.9663 19.4203C10.9663 19.6128 10.9061 19.661 10.7136 19.661C9.30585 19.661 7.91014 19.661 6.50239 19.661C4.6254 19.661 2.73637 19.661 0.859375 19.661V18.9992C1.17221 18.9992 1.47301 18.9992 1.78584 18.9992C2.21899 18.9992 2.15883 19.0233 2.15883 18.6383C2.15883 13.0073 2.15883 7.38832 2.15883 1.75734C2.15883 1.70921 2.15883 1.64905 2.15883 1.60092C2.17086 1.45654 2.12274 1.39638 1.96632 1.39638C1.59333 1.40841 1.23237 1.39638 0.859375 1.39638L0.859375 0.650391Z" fill="#1E40AF"/>
</svg>
