<svg width="71" height="55" viewBox="0 0 71 55" fill="none" xmlns="http://www.w3.org/2000/svg">
<path d="M0 28.7439C0.243878 28.0547 0.508964 27.3654 1.06034 26.8565C2.1737 25.8279 3.44611 25.5629 4.83515 26.146C6.18179 26.7186 6.89222 27.8002 6.95584 29.2634C6.99825 30.239 6.95584 31.2251 6.97704 32.2006C6.97704 32.4657 6.88161 32.5399 6.62713 32.5399C5.96972 32.5293 5.31231 32.5293 4.6549 32.5399C4.38981 32.5399 4.31559 32.4551 4.31559 32.2006C4.32619 31.2993 4.31559 30.398 4.31559 29.4861C4.31559 29.1044 4.26257 28.7227 4.01869 28.394C3.67938 27.9486 3.19163 27.9592 2.89473 28.4364C2.70387 28.7439 2.64025 29.0938 2.65085 29.4437C2.65085 30.3344 2.64025 31.2251 2.65085 32.1052C2.65085 32.4127 2.57663 32.5399 2.24792 32.5293C1.49508 32.4975 0.752842 32.5081 0 32.4975V28.7227L0 28.7439Z" fill="#1E40AF"/>
<path d="M62.9826 26.3465C62.7493 26.1451 62.5373 25.9542 62.3146 25.7739C62.1343 25.6361 62.2298 25.4876 62.2616 25.318C62.6433 23.3882 62.41 21.5962 61.0846 20.0481C59.0381 17.6517 55.2315 17.3018 52.7609 19.3801C50.1525 21.575 47.2153 22.0839 44.0237 21.2145C41.9666 20.6631 40.6306 19.1892 39.8036 17.2806C38.9871 15.4038 39.3688 13.633 40.4716 11.9683C41.0548 11.0882 41.7016 10.2505 42.0727 9.24322C42.9528 6.85745 42.1469 2.69031 38.3933 1.3967C36.3574 0.696872 34.3746 0.749889 32.5296 1.92687C31.5859 2.53126 30.9497 3.46436 30.3029 4.35505C28.6276 6.66659 26.4327 8.07685 23.5909 8.62822C21.1522 9.10538 19.1269 11.0246 18.7558 13.9829C18.5543 15.5522 19.1163 16.9095 19.8691 18.2031C21.0567 20.2602 21.3748 22.4445 20.8553 24.756C20.8128 24.9363 20.7492 25.1059 20.6962 25.2756C20.6432 25.2756 20.622 25.265 20.5902 25.2544C19.9328 25.0423 19.8055 24.6818 19.9434 23.9608C20.3357 21.9673 19.8479 20.1117 18.8088 18.3834C18.2468 17.4503 17.8333 16.4323 17.7485 15.3296C17.5364 12.6999 18.4589 10.558 20.5372 8.93572C21.4491 8.22529 22.467 7.75874 23.6121 7.56788C26.1039 7.14374 27.9914 5.78651 29.4546 3.77186C30.1014 2.88117 30.7482 1.97988 31.6389 1.30127C32.6887 0.495408 33.8762 0.0818746 35.2017 0.0182542C36.8876 -0.0665731 38.4993 0.124288 39.9732 1.01497C41.956 2.20256 42.974 3.99453 43.3345 6.23185C43.695 8.46917 42.921 10.346 41.6167 12.0955C41.182 12.6893 40.8003 13.3149 40.5882 14.0254C40.0474 15.8491 40.7154 17.323 41.8818 18.659C43.2921 20.2708 45.1583 20.6525 47.1729 20.5783C49.0073 20.504 50.5978 19.8254 52.0293 18.6484C55.1573 16.0506 59.7804 16.549 62.1449 19.7406C63.5976 21.6916 63.7779 23.8759 63.078 26.1557C63.0568 26.2087 63.025 26.2617 62.9826 26.3253V26.3465Z" fill="#1E40AF"/>
<path d="M9.45168 33.5563C8.75185 34.1183 8.18987 34.6379 7.82935 35.3165C6.716 37.4266 6.80082 39.5473 8.12625 41.4983C10.2257 44.5945 14.4777 45.57 17.6269 42.6434C20.2459 40.2047 23.2997 39.0489 26.8413 39.0913C29.6406 39.1231 32.249 39.7805 34.6348 41.3074C36.9251 42.7707 38.1551 44.8808 38.5368 47.5104C38.7171 48.7192 38.9504 49.9068 39.6608 50.9141C40.9332 52.7273 42.7358 53.5968 44.9201 53.618C48.2389 53.6498 50.6459 51.3594 51.1867 48.3587C51.579 46.2274 50.7413 44.4248 49.3205 42.8767C48.504 41.9966 47.7724 41.0635 47.2846 39.9502C46.4258 37.9886 46.7651 36.186 48.0163 34.5106C48.3768 34.0335 48.7903 33.5987 49.1933 33.164C49.4265 32.9201 49.5962 32.8777 49.8719 33.0898C50.3808 33.4715 50.3914 33.4503 49.9249 33.8956C49.0024 34.7757 48.2071 35.7512 47.9314 37.0236C47.5921 38.5717 48.2602 39.8654 49.1402 41.0741C49.7234 41.88 50.4657 42.548 51.0276 43.3857C54.2405 48.1466 50.911 54.0209 45.8532 54.6041C41.9087 55.06 38.399 52.5682 37.6673 48.6768C37.4659 47.6058 37.3174 46.5349 36.9251 45.517C36.2253 43.7144 34.8574 42.548 33.2245 41.6573C30.6903 40.2789 27.9652 39.9502 25.1235 40.2047C22.4621 40.4379 20.2672 41.6043 18.3267 43.3963C16.3333 45.2307 13.9581 45.8987 11.3497 45.061C8.63521 44.1809 6.75841 42.3572 6.22824 39.4624C5.87833 37.5856 6.14341 35.783 7.3628 34.1925C7.72332 33.726 8.09444 33.4503 8.69883 33.5457C8.9109 33.5775 9.12297 33.5457 9.47288 33.5457L9.45168 33.5563Z" fill="#1E40AF"/>
<path d="M48.5624 26.8886C48.52 27.7792 48.6472 28.882 48.4882 29.9848C48.2549 31.6071 46.8234 32.8265 45.1163 32.8477C43.494 32.8795 42.0095 31.7025 41.6914 30.1438C41.193 27.6838 43.0274 25.6374 45.5192 25.8812C45.8161 25.913 45.9222 25.86 45.9116 25.5419C45.8903 24.9906 45.9116 24.4392 45.9116 23.8878C45.9116 23.0501 46.4417 22.4775 47.2052 22.4669C47.9898 22.4563 48.5518 23.0289 48.5624 23.8772C48.573 24.8103 48.5624 25.7434 48.5624 26.8886ZM44.2362 29.3061C44.2362 29.8469 44.3104 30.1862 44.4907 30.5149C44.7982 31.0769 45.3072 31.0981 45.6147 30.5361C46.0388 29.7515 46.007 28.9456 45.5935 28.1716C45.339 27.6838 44.8406 27.6732 44.5437 28.1398C44.3104 28.5109 44.215 28.9244 44.2362 29.2955V29.3061Z" fill="#1E40AF"/>
<path d="M20.5246 30.6297C20.5246 31.1599 20.5246 31.7006 20.5246 32.2308C20.5246 32.4747 20.4398 32.5489 20.2065 32.5383C19.5279 32.5277 18.8599 32.5277 18.1812 32.5383C17.9162 32.5383 17.8419 32.4429 17.8525 32.1884C17.8525 30.5343 17.8525 28.8801 17.8525 27.226C17.8525 26.3989 18.4251 25.8157 19.178 25.8157C19.9308 25.8157 20.4822 26.4095 20.5034 27.226C20.5034 27.5971 20.5034 27.9788 20.5988 28.3818C20.9381 27.7774 21.288 27.173 21.6167 26.5686C22.0091 25.8582 22.7407 25.5825 23.3875 25.9006C24.0873 26.2399 24.3524 27.0139 23.9813 27.7668C23.7268 28.2863 23.4405 28.7953 23.133 29.2937C22.9846 29.5375 23.0058 29.7178 23.1648 29.9511C23.5678 30.5237 23.9601 31.1175 24.3418 31.7006C24.6387 32.1672 24.4585 32.4959 23.9071 32.5171C23.8965 32.5171 23.8753 32.5171 23.8647 32.5171C23.2073 32.4853 22.4544 32.7398 21.9348 32.4217C21.4365 32.1142 21.182 31.4143 20.8215 30.8842C20.7579 30.7887 20.6836 30.6933 20.6094 30.5873C20.5776 30.5873 20.5458 30.6085 20.5246 30.6085V30.6297Z" fill="#1E40AF"/>
<path d="M53.6325 29.7181C53.06 29.7181 52.498 29.7181 51.936 29.7181C51.6603 29.7181 51.5649 29.7923 51.6815 30.068C51.7133 30.1422 51.7239 30.2164 51.7557 30.2907C51.883 30.5557 52.0208 30.8314 52.3495 30.8738C52.6994 30.9269 52.9539 30.7042 53.0918 30.4391C53.2508 30.121 53.4735 30.0574 53.7916 30.068C54.3112 30.0892 54.8307 30.0786 55.3503 30.068C55.6048 30.068 55.6684 30.1422 55.6154 30.3967C55.3397 31.5631 54.6187 32.3159 53.5053 32.687C51.7875 33.2596 49.932 32.4219 49.2109 30.789C48.4687 29.1137 49.0837 27.1945 50.6848 26.3038C51.8088 25.6782 52.9751 25.6888 54.0991 26.3144C55.2337 26.9506 55.7108 27.9685 55.7426 29.2515C55.7426 29.6332 55.626 29.7711 55.2337 29.7393C54.7035 29.7075 54.1627 29.7393 53.6219 29.7393L53.6325 29.7181ZM52.3813 28.732C52.5298 28.732 52.6888 28.7108 52.8373 28.732C53.1448 28.7638 53.1766 28.6047 53.0812 28.3714C53.0069 28.1912 52.9115 28.0109 52.7525 27.8837C52.5404 27.7034 52.3177 27.6822 52.0844 27.8519C51.8194 28.0427 51.6391 28.3502 51.6815 28.6365C51.7133 28.8804 52.042 28.6895 52.2329 28.7426C52.2753 28.7532 52.3283 28.7426 52.3707 28.7426L52.3813 28.732Z" fill="#1E40AF"/>
<path d="M28.8347 29.7196C28.2621 29.7196 27.7001 29.7302 27.1381 29.7196C26.8306 29.7196 26.7988 29.8363 26.8836 30.0802C27.0109 30.4195 27.1275 30.8118 27.5623 30.8754C27.9758 30.939 28.2091 30.6421 28.3787 30.324C28.4848 30.1332 28.612 30.0696 28.8135 30.0802C29.3542 30.0802 29.8844 30.1014 30.4252 30.0802C30.8281 30.059 30.9129 30.2074 30.7963 30.5573C30.4358 31.7237 29.6617 32.4659 28.4848 32.7522C26.714 33.1764 25.0068 32.2857 24.3388 30.6209C23.7026 29.0198 24.3812 27.1324 25.9505 26.2841C27.1381 25.6479 28.3363 25.6903 29.4815 26.422C30.563 27.1112 30.9872 28.1397 30.9342 29.4015C30.9235 29.656 30.8387 29.7515 30.5842 29.7408C30.0011 29.7302 29.4179 29.7408 28.8347 29.7408V29.7196ZM27.6047 28.7335C27.7849 28.7335 27.9758 28.7335 28.1561 28.7335C28.2939 28.7335 28.3681 28.6699 28.3257 28.5427C28.2303 28.2564 28.1349 27.9701 27.8274 27.811C27.5835 27.6732 27.382 27.7792 27.2018 27.9383C26.9897 28.1291 26.8412 28.4048 26.8943 28.6593C26.9367 28.8608 27.2336 28.7123 27.4244 28.7441C27.488 28.7441 27.5411 28.7441 27.6047 28.7441V28.7335Z" fill="#1E40AF"/>
<path d="M37.791 25.8574C39.7314 25.8574 41.2583 27.4373 41.2371 29.399C41.2159 31.3394 39.689 32.8769 37.7698 32.8769C35.8399 32.8769 34.2812 31.297 34.2812 29.3565C34.2812 27.4055 35.8506 25.8574 37.791 25.8574ZM36.9533 29.3565C36.9639 29.8019 37.0063 30.2472 37.282 30.6184C37.5789 31.0319 37.9394 31.0425 38.2575 30.6396C38.7347 30.0458 38.7241 28.6355 38.2363 28.0523C37.9394 27.7024 37.5683 27.713 37.282 28.0947C36.9957 28.4765 36.9745 28.9112 36.9533 29.3565Z" fill="#1E40AF"/>
<path d="M63.037 29.3565C63.037 31.3076 61.4889 32.8769 59.5484 32.8769C57.6292 32.8769 56.0917 31.3394 56.0705 29.399C56.0493 27.4585 57.608 25.868 59.5378 25.8574C61.4889 25.8574 63.0264 27.3949 63.037 29.3565ZM60.3861 29.3778C60.3967 28.9112 60.3225 28.4765 60.0574 28.1053C59.7817 27.7024 59.3682 27.7024 59.0713 28.0841C58.6153 28.6673 58.6047 30.0034 59.0501 30.6077C59.3894 31.0637 59.8135 31.0425 60.1104 30.5547C60.3331 30.1942 60.4073 29.7913 60.3967 29.3778H60.3861Z" fill="#1E40AF"/>
<path d="M70.2973 30.5125C70.2973 31.0745 70.2973 31.6471 70.2973 32.2091C70.2973 32.4424 70.2443 32.5378 69.9898 32.5272C69.3324 32.5166 68.675 32.5166 68.0176 32.5272C67.7525 32.5272 67.6783 32.4424 67.6783 32.1879C67.6889 31.2972 67.6783 30.4171 67.6783 29.5264C67.6783 29.1341 67.6571 28.7312 67.4026 28.3919C67.0421 27.9041 66.5119 27.9465 66.2256 28.4767C66.0454 28.8054 65.9923 29.1659 65.9923 29.537C65.9923 30.3959 65.9817 31.2548 65.9923 32.1137C65.9923 32.4106 65.9393 32.559 65.6 32.5378C64.9532 32.5166 64.317 32.5272 63.6702 32.5378C63.4581 32.5378 63.3733 32.4742 63.3733 32.2515C63.3839 31.17 63.3415 30.0778 63.3945 28.9963C63.4899 27.2997 64.9532 25.9425 66.7134 25.8577C68.3675 25.7728 69.9898 27.0028 70.2443 28.6039C70.3397 29.2295 70.2655 29.8869 70.2655 30.5338C70.2655 30.5338 70.2761 30.5338 70.2867 30.5338L70.2973 30.5125Z" fill="#1E40AF"/>
<path d="M16.0929 29.0291C15.9657 29.0291 15.849 29.0291 15.7218 29.0291C15.1704 29.0715 14.6721 29.1033 14.5766 28.3399C14.5342 28.043 14.3009 27.7779 13.9298 27.7991C13.5799 27.8203 13.4315 28.0748 13.3254 28.3505C13.0497 29.0397 13.0391 29.7183 13.3466 30.397C13.4739 30.6726 13.6541 30.9271 13.9828 30.9165C14.2903 30.9165 14.5342 30.6726 14.566 30.4076C14.6721 29.5805 15.2234 29.6335 15.8172 29.6653C16.2308 29.6865 16.6443 29.6865 17.0578 29.6653C17.3865 29.6441 17.4502 29.7608 17.3865 30.0683C16.9306 32.4116 14.1631 33.6204 12.1379 32.348C10.7912 31.5103 10.1656 29.8456 10.611 28.3505C11.0669 26.8342 12.4772 25.8163 14.0783 25.8587C15.6476 25.9011 16.9518 26.9721 17.3547 28.5308C17.4502 28.8913 17.4184 29.0715 16.9836 29.0291C16.6973 28.9973 16.4004 29.0291 16.1141 29.0291H16.0929Z" fill="#1E40AF"/>
<path d="M31.2851 27.9577C31.2851 26.558 31.2851 25.169 31.2851 23.7693C31.2851 23.1331 31.7093 22.6135 32.2712 22.4863C32.8862 22.3485 33.4906 22.6241 33.7875 23.1755C33.9042 23.3982 33.936 23.6421 33.936 23.8859C33.936 26.6322 33.936 29.3679 33.936 32.1142C33.936 32.4217 33.8724 32.5489 33.533 32.5383C32.9074 32.5171 32.2712 32.5171 31.6456 32.5383C31.3275 32.5489 31.2639 32.4323 31.2745 32.146C31.2851 30.7464 31.2745 29.3573 31.2745 27.9577H31.2851Z" fill="#1E40AF"/>
<path d="M7.45474 29.9838C7.45474 29.2946 7.46534 28.6054 7.45474 27.9161C7.44414 27.439 7.59258 27.0466 7.9425 26.7285C8.04853 26.6331 8.12275 26.5165 8.21819 26.421C8.52568 26.1135 8.53629 25.8167 8.21819 25.5092C8.03793 25.3289 7.84707 25.138 7.67741 24.9472C7.12603 24.3004 7.16845 23.4309 7.76224 22.8795C8.34543 22.3387 9.21491 22.3493 9.79809 22.9007C10.3813 23.4627 10.4025 24.3322 9.84051 24.9684C9.67085 25.1592 9.49059 25.3501 9.29973 25.5304C9.00284 25.8273 9.00284 26.1348 9.31034 26.3998C9.96775 26.9512 10.1374 27.6616 10.1056 28.4887C10.0526 29.6975 10.0844 30.9063 10.1056 32.1151C10.1056 32.4332 10.0208 32.5392 9.69206 32.5286C9.06646 32.5074 8.43025 32.5074 7.80465 32.5286C7.48655 32.5392 7.42293 32.4226 7.43353 32.1363C7.45474 31.4153 7.43353 30.6942 7.43353 29.9732L7.45474 29.9838Z" fill="#1E40AF"/>
<path d="M16.1049 14.9685C16.1049 17.1634 14.3023 18.9553 12.0968 18.966C9.8807 18.966 8.07812 17.1952 8.07812 14.9897C8.07812 12.7842 9.8701 11.0028 12.0756 10.9922C14.2917 10.9922 16.1049 12.7842 16.1049 14.9685ZM12.0968 17.9268C13.7509 17.9268 15.0764 16.5908 15.0658 14.9473C15.0552 13.3355 13.7191 12.0207 12.0862 12.0101C10.4321 12.0101 9.09605 13.3249 9.09605 14.9685C9.09605 16.6226 10.4215 17.9268 12.0862 17.9162L12.0968 17.9268Z" fill="#1E40AF"/>
</svg>
