<svg width="110" height="14" viewBox="0 0 110 14" fill="none" xmlns="http://www.w3.org/2000/svg">
<path d="M107.932 6.36243C107.67 6.71515 107.422 7.02868 107.187 7.35528C106.233 8.63553 105.28 9.91579 104.313 11.196C104.065 11.5357 104.104 11.5226 103.869 11.196C102.745 9.66757 101.609 8.13911 100.485 6.61064C100.42 6.53226 100.381 6.42775 100.276 6.36243C100.198 6.46694 100.237 6.58451 100.237 6.70209C100.237 8.83149 100.237 10.9609 100.237 13.0903C100.237 13.5737 100.289 13.5083 99.8322 13.5083C99.4011 13.5083 98.97 13.5083 98.5258 13.5083C98.2515 13.5083 98.2515 13.5083 98.2515 13.2209C98.2515 13.1948 98.2515 13.1687 98.2515 13.1295C98.2515 8.90987 98.2515 4.69026 98.2515 0.457584C98.2515 0.353073 98.2384 0.248563 98.2906 0.0917969C98.7087 0.627413 99.0745 1.16303 99.4664 1.67252C99.8583 2.19507 100.237 2.73069 100.629 3.25324C101.021 3.77579 101.4 4.31141 101.792 4.83396C102.184 5.35651 102.563 5.89213 102.954 6.41468C103.346 6.93724 103.725 7.47285 104.13 8.02153C106.077 5.35651 108.01 2.73069 109.931 0.104861C109.957 0.104861 109.97 0.104861 109.996 0.117925V0.340009C109.996 4.61188 109.996 8.88375 109.996 13.1556C109.996 13.2079 109.996 13.2471 109.996 13.2993C109.996 13.4169 109.957 13.4822 109.826 13.4822C109.264 13.4822 108.703 13.4822 108.154 13.4822C108.036 13.4822 107.997 13.43 107.997 13.3254C107.997 13.2471 107.997 13.1687 107.997 13.0903C107.997 10.9348 107.997 8.7923 107.997 6.63677C107.997 6.54532 108.023 6.44081 107.945 6.31017L107.932 6.36243Z" fill="#1E40AF"/>
<path d="M19.3169 13.8476C15.5154 13.8476 12.4323 10.7123 12.4454 6.87157C12.4584 3.08306 15.5807 0 19.3822 0C23.1577 0 26.2277 3.12225 26.2146 6.92382C26.2146 10.7646 23.1185 13.8607 19.3169 13.8476ZM14.4572 6.92382C14.418 9.61497 16.6519 11.875 19.3561 11.8619C22.0342 11.8489 24.2289 9.65416 24.2289 6.94995C24.2289 4.20655 22.0211 1.99876 19.2777 2.02489C16.4298 2.05102 14.418 4.4417 14.4572 6.92382Z" fill="#1E40AF"/>
<path d="M88.7674 13.8476C85.0051 13.8476 81.8959 10.7907 81.8828 6.92382C81.8828 3.09612 85.0051 0 88.8197 0C92.5951 0.0130638 95.6651 3.14838 95.6521 6.96301C95.639 10.7646 92.5429 13.8607 88.7674 13.8476ZM88.7674 11.8619C91.4716 11.8619 93.6794 9.66722 93.6794 6.94995C93.6794 4.24574 91.4978 2.03796 88.8197 2.02489C86.1155 2.02489 83.9338 4.19349 83.8946 6.8977C83.8685 9.58884 86.0632 11.875 88.7674 11.8619Z" fill="#1E40AF"/>
<path d="M38.1289 13.4693C38.0636 13.5216 37.9852 13.4955 37.9068 13.4955C37.2928 13.4955 36.6788 13.4955 36.0518 13.4955C35.8558 13.4955 35.7643 13.4302 35.6598 13.2734C34.7584 11.8886 33.8309 10.5039 32.9295 9.1191C32.8119 8.9362 32.6944 8.85782 32.4723 8.87088C32.015 8.88395 31.5447 8.87088 31.0875 8.87088C30.8393 8.87088 30.8262 8.87088 30.8262 9.1191C30.8262 9.8768 30.8262 10.6476 30.8262 11.4053C30.8262 12.0193 30.8262 12.6333 30.8262 13.2603C30.8262 13.4824 30.8262 13.4955 30.6041 13.4955C30.0816 13.4955 29.559 13.4955 29.0365 13.4955C28.8275 13.4955 28.8275 13.4955 28.8144 13.2865C28.8144 13.2342 28.8144 13.195 28.8144 13.1428C28.8144 9.00152 28.8144 4.84723 28.8144 0.706C28.8144 0.287958 28.7621 0.327149 29.2063 0.327149C30.5388 0.327149 31.8713 0.327149 33.1908 0.327149C34.9805 0.314085 36.1824 1.18936 36.914 2.75702C37.737 4.5337 37.2667 6.68923 35.8297 7.96948C35.6076 8.16544 35.3724 8.33527 35.1242 8.46591C34.9544 8.57042 34.9413 8.57042 35.0589 8.74025C35.5815 9.52408 36.0909 10.321 36.6135 11.1048C37.0838 11.8102 37.541 12.5157 38.0113 13.2342C38.0505 13.2995 38.1289 13.3648 38.1158 13.4563L38.1289 13.4693ZM32.2241 2.29979C31.8452 2.29979 31.4664 2.29979 31.1006 2.29979C30.8524 2.29979 30.8524 2.29979 30.8524 2.56106C30.8524 3.9197 30.8524 5.27834 30.8524 6.63697C30.8524 6.88518 30.8524 6.88518 31.0875 6.88518C31.8191 6.88518 32.5506 6.88518 33.2822 6.88518C33.6872 6.88518 34.053 6.75455 34.3796 6.50633C35.2157 5.89233 35.5292 4.70353 35.1503 3.69761C34.8629 2.93991 34.1314 2.26059 33.1255 2.29979C32.825 2.29979 32.5245 2.29979 32.2241 2.29979Z" fill="#1E40AF"/>
<path d="M80.514 13.4569C80.4356 13.5222 80.3442 13.4961 80.2658 13.4961C79.6649 13.4961 79.0509 13.4961 78.4499 13.4961C78.254 13.4961 78.1364 13.4308 78.0319 13.2609C77.1305 11.8762 76.2029 10.4914 75.3015 9.10665C75.184 8.93682 75.0664 8.85844 74.8574 8.85844C74.3871 8.8715 73.9168 8.85844 73.4465 8.85844C73.1983 8.85844 73.1983 8.85844 73.1983 9.11971C73.1983 10.413 73.1983 11.7063 73.1983 12.9997C73.1983 13.0519 73.1983 13.1172 73.1983 13.1695C73.1983 13.483 73.1983 13.483 72.8847 13.483C72.3883 13.483 71.9049 13.483 71.4085 13.483C71.2648 13.483 71.1995 13.4308 71.2126 13.2871C71.2126 13.2348 71.2126 13.1956 71.2126 13.1434C71.2126 8.98908 71.2126 4.83478 71.2126 0.680489C71.2126 0.275511 71.1734 0.314702 71.5914 0.314702C72.9109 0.314702 74.2303 0.353894 75.5498 0.314702C77.5877 0.249383 78.9725 1.64721 79.4689 3.17568C80.0829 5.06993 79.4166 7.16014 77.8229 8.27057C77.7184 8.34895 77.6008 8.42733 77.4832 8.47959C77.3526 8.54491 77.3526 8.61023 77.4309 8.71474C77.7445 9.17197 78.0449 9.64227 78.3585 10.1126C79.0509 11.1446 79.7302 12.1897 80.4226 13.2218C80.4618 13.2871 80.5401 13.3524 80.5401 13.4569H80.514ZM73.1983 4.59963C73.1983 5.27895 73.1983 5.94521 73.1983 6.62453C73.1983 6.8858 73.1983 6.8858 73.4465 6.8858C74.165 6.8858 74.8966 6.8858 75.6151 6.8858C76.0592 6.8858 76.4512 6.7421 76.7908 6.46776C77.6269 5.81457 77.9143 4.57351 77.444 3.58066C77.0652 2.75764 76.425 2.3004 75.4844 2.3004C74.8051 2.3004 74.1127 2.3004 73.4334 2.3004C73.1983 2.3004 73.1983 2.3004 73.1852 2.53555C73.1852 3.21487 73.1852 3.90725 73.1852 4.58657L73.1983 4.59963Z" fill="#1E40AF"/>
<path d="M0.0653191 0.142578C2.63889 2.97743 5.1994 5.82534 7.7991 8.68631C7.86442 8.54261 7.83829 8.42504 7.83829 8.32053C7.83829 5.79921 7.83829 3.26483 7.83829 0.743514C7.83829 0.273216 7.81216 0.351599 8.24327 0.338535C8.7005 0.338535 9.14467 0.338535 9.6019 0.338535C9.82399 0.338535 9.82399 0.338535 9.83705 0.56062C9.83705 0.612875 9.83705 0.652067 9.83705 0.704322C9.83705 4.937 9.83705 9.16967 9.83705 13.4024C9.83705 13.5199 9.83705 13.6506 9.83705 13.7681C9.81093 13.7681 9.79786 13.7812 9.77173 13.7943C7.19816 10.9725 4.62459 8.13763 2.05102 5.31585C2.02489 5.31585 2.01183 5.32891 1.9857 5.34198C1.9857 5.44649 1.9857 5.551 1.9857 5.64244C1.9857 8.1507 1.9857 10.6589 1.9857 13.1672C1.9857 13.5722 1.99876 13.5199 1.61991 13.5199C1.17574 13.5199 0.731574 13.5199 0.287404 13.5199C0 13.5199 0 13.5199 0 13.2456C0 13.2064 0 13.1672 0 13.128C0 8.9084 0 4.70185 0 0.482237C0 0.377727 0 0.273216 0 0.168706C0.0261276 0.168706 0.0391914 0.142578 0.0653191 0.142578Z" fill="#1E40AF"/>
<path d="M40.7084 6.91119C40.7084 4.83404 40.7084 2.76996 40.7084 0.692812C40.7084 0.287834 40.7084 0.340089 41.048 0.340089C41.9494 0.340089 42.8639 0.340089 43.7653 0.340089C45.5551 0.313962 46.979 1.0586 48.0764 2.41724C49.1999 3.81506 49.6702 5.43498 49.6048 7.21166C49.5526 8.63561 49.1476 9.94199 48.3246 11.1177C47.4493 12.3457 46.2997 13.1688 44.7974 13.4431C44.5099 13.4954 44.2095 13.5215 43.909 13.5215C42.9423 13.5215 41.9756 13.5215 41.0219 13.5215C40.6953 13.5215 40.6953 13.5215 40.6953 13.1818C40.6953 11.0916 40.6953 9.0014 40.6953 6.91119H40.7084ZM42.681 6.91119C42.681 8.34821 42.681 9.78523 42.681 11.2222C42.681 11.3006 42.681 11.379 42.681 11.4574C42.681 11.6011 42.7333 11.6403 42.8639 11.6403C43.2297 11.6403 43.5955 11.6403 43.9613 11.6403C44.2879 11.6403 44.5883 11.588 44.9019 11.4835C45.6988 11.2222 46.2997 10.7128 46.7569 10.0334C47.2925 9.24961 47.5799 8.37434 47.6453 7.43374C47.7367 6.20574 47.5146 5.03 46.8353 3.98489C46.3128 3.16187 45.6073 2.58707 44.6406 2.33885C44.0266 2.18209 43.4126 2.27353 42.7986 2.24741C42.7202 2.24741 42.6679 2.2866 42.6679 2.36498C42.6679 2.44336 42.6679 2.52175 42.6679 2.60013C42.6679 4.03715 42.6679 5.47417 42.6679 6.91119H42.681Z" fill="#1E40AF"/>
<path d="M58.2248 1.72291C57.7153 2.06257 57.2058 2.4153 56.6833 2.76802C56.631 2.71576 56.5918 2.66351 56.5526 2.62432C56.1607 2.16708 55.6381 1.98419 55.0503 2.03644C54.175 2.10176 53.6786 2.79415 53.8353 3.65636C53.9399 4.2181 54.2403 4.64921 54.6453 5.01499C55.0242 5.34159 55.403 5.66819 55.7819 6.00784C56.1999 6.3867 56.6571 6.73942 57.049 7.1444C57.6761 7.78452 58.1725 8.5161 58.3946 9.40444C58.7473 10.8023 58.2117 12.2132 57.036 13.0362C55.4422 14.1466 53.2605 13.8853 51.9803 12.4091C51.6929 12.0695 51.4577 11.6906 51.2748 11.2856C51.2226 11.1811 51.2226 11.0897 51.3532 11.0374C51.8235 10.8153 52.2938 10.5932 52.7641 10.3581C52.8686 10.3058 52.9339 10.332 52.9862 10.4365C53.1299 10.7239 53.3128 10.9852 53.5218 11.2203C53.966 11.6906 54.5147 11.8866 55.1417 11.8474C55.8994 11.7951 56.5265 11.1158 56.5787 10.3189C56.6179 9.82248 56.4742 9.36525 56.1868 8.96027C56.017 8.72512 55.821 8.5161 55.599 8.32014C54.9327 7.73227 54.2664 7.15746 53.6002 6.56959C52.9862 6.03397 52.4245 5.4461 52.124 4.67534C51.6406 3.44734 51.7321 2.28466 52.6073 1.26568C53.2605 0.507978 54.1358 0.168319 55.1287 0.155255C56.3175 0.129128 57.2842 0.638617 58.0941 1.50083C58.1464 1.56615 58.2117 1.63147 58.2378 1.74904L58.2248 1.72291Z" fill="#1E40AF"/>
<path d="M65.4443 7.85154C65.4443 9.61515 65.4443 11.3788 65.4443 13.1424C65.4443 13.2208 65.4443 13.2991 65.4443 13.3775C65.4443 13.4951 65.392 13.5343 65.2875 13.5343C64.6996 13.5343 64.1118 13.5343 63.5239 13.5343C63.4063 13.5343 63.3671 13.482 63.3671 13.3775C63.3671 13.2861 63.3671 13.2077 63.3671 13.1163C63.3671 9.60209 63.3671 6.07486 63.3671 2.56069C63.3671 2.16878 63.4194 2.19491 63.0144 2.19491C62.1783 2.19491 61.3422 2.19491 60.4931 2.19491C60.2187 2.19491 60.2188 2.19491 60.2188 1.92057C60.2188 1.4764 60.2188 1.03223 60.2188 0.588056C60.2188 0.352908 60.2188 0.339844 60.4539 0.339844C60.8719 0.339844 61.303 0.339844 61.7211 0.339844C63.8766 0.339844 66.0191 0.339844 68.1746 0.339844C68.2269 0.339844 68.2661 0.339844 68.3183 0.339844C68.5665 0.339844 68.5665 0.339844 68.5665 0.60112C68.5665 1.04529 68.5665 1.48946 68.5665 1.93363C68.5665 2.18184 68.5665 2.19491 68.3053 2.19491C67.4953 2.19491 66.6853 2.19491 65.8754 2.19491C65.8101 2.19491 65.7447 2.19491 65.6794 2.19491C65.4312 2.19491 65.4312 2.19491 65.4312 2.45618C65.4312 4.25899 65.4312 6.0618 65.4312 7.8646L65.4443 7.85154Z" fill="#1E40AF"/>
</svg>
