<svg width="118" height="12" viewBox="0 0 118 12" fill="none" xmlns="http://www.w3.org/2000/svg">
<path d="M7.28211 0C7.66323 0.217783 8.04435 0.449177 8.42547 0.653348C11.0933 2.0281 12.2775 4.13787 11.7603 6.76488C11.2703 9.20132 9.62328 10.7122 7.15961 11.1614C4.45094 11.6514 2.27311 10.6577 0.830297 8.33019C0.544457 7.89462 0.272228 7.44545 0 6.99627C0 6.09792 0 5.19956 0 4.30121C1.17058 2.31394 2.72228 0.748628 5.03623 0C5.78485 0 6.53348 0 7.28211 0ZM10.508 5.64874C10.4672 3.37563 8.38464 1.49726 5.93458 1.52448C3.43008 1.5517 1.5517 3.40286 1.57892 5.79847C1.60615 8.12602 3.63425 9.99078 6.09792 9.93634C8.53436 9.88189 10.5625 7.92185 10.508 5.64874Z" fill="#1E40AF"/>
<path d="M17.1333 6.95413C17.1061 2.70737 18.2358 1.99957 22.6323 3.67378C23.3673 3.95962 23.5851 3.56489 24.0343 3.37433C26.5796 2.25819 28.7438 3.37433 29.0297 6.00133C29.1658 7.23997 29.0841 8.49222 29.0705 9.74447C29.0705 10.2481 29.193 10.9559 28.3491 10.8742C27.5869 10.7926 27.7502 10.0984 27.723 9.59475C27.6685 8.3425 27.723 7.09025 27.5732 5.85161C27.4644 4.87158 26.811 4.21824 25.6949 4.23185C24.5651 4.24546 23.9934 4.95325 23.9118 5.93327C23.7893 7.26719 23.8301 8.60111 23.7893 9.94864C23.7757 10.425 23.5987 10.8878 23.0543 10.8878C22.4417 10.8878 22.4009 10.3978 22.4009 9.92142C22.4009 8.76445 22.4145 7.59387 22.3737 6.4369C22.3329 5.2527 21.8428 4.25907 20.4681 4.23185C19.0933 4.20462 18.5489 5.17104 18.4944 6.35523C18.44 7.5122 18.4808 8.68278 18.4536 9.83975C18.4536 10.2753 18.4672 10.7926 17.8275 10.8198C17.1741 10.847 17.1605 10.3162 17.1469 9.88059C17.1197 8.90056 17.1469 7.92054 17.1469 6.94052L17.1333 6.95413Z" fill="#1E40AF"/>
<path d="M60.9171 8.07118C59.801 7.88062 59.379 8.9287 58.0995 8.41146C59.1476 5.96141 62.6049 6.13836 63.3672 3.78358C63.6938 3.94692 63.8436 3.97414 63.8436 4.02859C64.1702 5.81168 61.3527 10.4668 59.6921 10.9432C58.2901 11.3515 57.1059 10.9432 56.1531 9.96317C55.0778 8.86064 54.8736 7.41783 55.6767 6.23364C56.3845 5.18556 56.5206 4.24637 56.507 3.06218C56.507 1.31991 57.732 0.530452 59.4879 0.652954C60.2229 0.7074 61.1893 1.0613 61.0941 1.82354C60.9852 2.70828 60.1549 2.31355 59.5287 2.12299C58.8346 1.90521 58.1948 2.06854 57.9226 2.77634C57.5823 3.66108 58.1268 4.12387 58.9435 4.32804C59.4199 4.45054 59.9235 4.57304 59.869 5.1175C59.8282 5.63473 59.3246 5.77085 58.8346 5.79807C57.5006 5.87974 56.752 6.61476 56.7656 7.8534C56.7656 8.71092 57.3237 9.39149 58.2357 9.62288C59.5287 9.94956 60.359 9.37788 60.9443 8.07118H60.9171Z" fill="#1E40AF"/>
<path d="M107.438 9.4063C106.145 11.3663 104.403 11.7066 102.456 10.8355C100.564 9.97798 99.7476 8.43989 100.02 6.43901C100.333 4.27479 101.803 3.10421 103.94 2.85921C105.982 2.62781 107.588 3.55339 108.445 5.36371C109.071 6.68401 109.126 7.84099 106.962 7.69126C105.669 7.59598 104.362 7.66404 103.055 7.69126C102.62 7.69126 102.034 7.58237 101.871 8.14044C101.694 8.75295 102.211 9.10685 102.66 9.4063C104.226 10.4816 105.791 9.58325 107.438 9.4063ZM107.016 6.26206C106.88 4.79203 105.859 4.31563 104.58 4.20674C103.15 4.09784 102.143 4.68314 101.585 6.26206H107.016Z" fill="#1E40AF"/>
<path d="M35.4428 2.81864C37.8656 2.99559 39.7984 5.07814 39.6351 7.32402C39.4581 9.61074 37.2939 11.3938 34.8711 11.2441C32.3802 11.0808 30.5699 9.13434 30.7196 6.76595C30.8557 4.47923 33.0471 2.64169 35.4428 2.80503V2.81864ZM35.2114 4.17978C33.3874 4.27506 32.1624 5.18703 32.0943 6.95651C32.0263 8.71239 33.156 9.85575 35.0208 9.91019C36.8447 9.95103 38.0698 9.02545 38.1378 7.1743C38.1923 5.35037 37.0897 4.41118 35.2114 4.17978Z" fill="#1E40AF"/>
<path d="M92.4668 7.1855C92.3987 9.52666 90.3706 11.337 87.907 11.2689C85.4705 11.2009 83.4833 9.2136 83.5649 6.92688C83.6466 4.64016 85.7836 2.74818 88.1928 2.81623C90.6293 2.88429 92.5485 4.84434 92.4804 7.1855H92.4668ZM87.7436 9.9214C89.622 9.94862 90.8879 9.06388 91.0648 7.32161C91.2418 5.57935 90.1937 4.39516 88.3289 4.23182C86.4642 4.06848 85.2527 5.00767 85.0486 6.77716C84.8444 8.60109 85.9469 9.58111 87.7573 9.90778L87.7436 9.9214Z" fill="#1E40AF"/>
<path d="M44.7164 2.79102C45.6692 2.87268 46.4723 3.09047 47.1393 3.62131C47.5612 3.9616 48.1329 4.41077 47.8198 4.92801C47.4523 5.54052 46.9079 5.17301 46.4315 4.81912C46.0776 4.5605 45.6556 4.30188 45.2337 4.26105C44.3217 4.16577 43.1239 4.01604 42.9197 5.11857C42.7428 6.1122 43.8589 6.26193 44.6756 6.42526C45.2201 6.53416 45.7645 6.62944 46.309 6.76555C47.4115 7.02417 48.1465 7.60946 48.1465 8.78004C48.1465 9.93701 47.4115 10.5495 46.4043 10.9579C45.329 11.3934 44.2128 11.4343 43.1511 11.0123C42.3344 10.6856 41.055 10.2365 41.5722 9.22922C42.0758 8.26281 42.7156 9.58311 43.3553 9.69201C43.9814 9.8009 44.6348 9.90979 45.2609 9.88257C45.9279 9.86895 46.6357 9.65117 46.6765 8.87532C46.7037 8.26281 46.1184 8.00419 45.574 7.86808C45.0431 7.73196 44.4987 7.60946 43.9542 7.51418C42.4433 7.26917 41.1502 6.75194 41.4497 4.98245C41.7491 3.22658 43.3008 2.96796 44.7164 2.79102Z" fill="#1E40AF"/>
<path d="M113.89 11.2721C113.019 11.3129 112.202 11.0815 111.521 10.5915C111.031 10.2512 110.283 9.77483 110.854 9.10787C111.358 8.50897 111.78 9.20315 112.216 9.48899C112.855 9.91094 113.604 10.0198 114.353 9.91094C114.965 9.82928 115.741 9.82928 115.863 9.01259C116 8.15507 115.251 8.01896 114.652 7.8284C114.216 7.69228 113.754 7.61061 113.291 7.54256C111.93 7.32477 110.677 6.95727 110.677 5.32389C110.677 3.75858 111.848 3.17329 113.196 2.91467C114.666 2.62883 115.972 3.00995 116.898 4.20776C117.034 4.38471 117.075 4.77944 116.966 4.95639C116.762 5.28306 116.381 5.33751 116.027 5.06528C115.891 4.95639 115.755 4.82027 115.605 4.72499C114.598 4.03081 113.522 4.00359 112.501 4.62971C112.27 4.76583 112.052 5.32389 112.161 5.51445C112.678 6.3992 113.686 6.3992 114.598 6.56253C116.136 6.84837 117.715 7.25672 117.347 9.18954C117.02 10.891 115.482 11.2313 113.917 11.2993L113.89 11.2721Z" fill="#1E40AF"/>
<path d="M78.7609 0.994897C77.3453 2.08381 75.7528 1.66186 74.2555 1.70269C73.0305 1.72991 72.3771 1.97492 72.3635 3.33606C72.3635 4.61553 72.8263 5.01027 74.133 5.09193C75.1811 5.15999 77.0458 4.27525 77.0867 5.86779C77.1139 6.90225 75.2083 6.42585 74.2147 6.38502C71.7918 6.27613 72.5268 7.9095 72.3635 9.12092C72.2818 9.74704 72.731 10.836 71.6965 10.8223C70.6212 10.8223 71.1249 9.70621 71.084 9.09369C70.9888 8.032 70.9751 6.94309 71.084 5.8814C71.2338 4.13914 70.1721 1.52574 71.5604 0.845171C73.6021 -0.162074 76.338 0.35516 78.7609 1.00851V0.994897Z" fill="#1E40AF"/>
<path d="M15.027 5.77183C15.027 7.20103 15.027 8.61662 15.027 10.0458C15.027 10.5358 14.8364 10.9442 14.2375 10.8625C13.8428 10.8081 13.625 10.495 13.625 10.1003C13.625 7.16019 13.625 4.23374 13.6522 1.29367C13.6522 0.912551 13.9108 0.585877 14.3056 0.572266C14.9045 0.572266 15.0134 1.03505 15.0134 1.49784C15.0134 2.92704 15.0134 4.34263 15.0134 5.77183H15.027Z" fill="#1E40AF"/>
<path d="M94.2316 6.39662C93.2244 3.83767 95.0891 3.12988 97.58 2.88487C97.9748 2.84404 98.3559 2.83043 98.492 3.22516C98.6009 3.55183 98.6281 4.02823 98.1517 4.08268C95.0755 4.43657 95.7833 6.66885 95.6336 8.54722C95.5655 9.33668 96.2053 10.7931 95.0347 10.7931C93.6055 10.7931 94.4494 9.26863 94.2588 8.42472C94.15 7.9211 94.2316 7.36303 94.2316 6.41023V6.39662Z" fill="#1E40AF"/>
<path d="M81.7485 0.583984C81.7485 3.79628 81.7485 6.99496 81.7485 10.2073C81.7485 10.5748 81.5579 10.9151 81.0815 10.847C80.6187 10.7926 80.5234 10.4114 80.5234 10.0711C80.5234 6.9133 80.5234 3.75545 80.5234 0.597596C80.9318 0.597596 81.3537 0.597596 81.7621 0.597596L81.7485 0.583984Z" fill="#1E40AF"/>
</svg>
