<svg width="77" height="20" viewBox="0 0 77 20" fill="none" xmlns="http://www.w3.org/2000/svg">
<path d="M11.6004 7.52432C11.5504 8.46432 11.0304 9.37432 10.3104 10.1943C10.2104 10.3043 9.98044 10.4143 10.0904 10.5643C10.2004 10.7243 10.3804 10.5343 10.5204 10.4743C11.9704 9.83432 13.3204 9.01432 14.6404 8.13432C14.8004 8.03432 14.9604 7.93432 15.1304 7.85432C16.1404 7.38432 16.9604 6.65432 17.8204 5.97432C18.7004 5.27432 19.6904 4.96432 20.8204 5.12432C21.6304 5.23432 22.2404 6.05432 22.0804 6.86432C21.9704 7.38432 21.8304 7.90432 21.7104 8.42432C21.5304 9.19432 21.5004 9.96432 21.7704 10.7243C22.3304 12.2743 24.0204 12.7643 25.3504 11.7743C26.1504 11.1743 26.6404 10.4143 26.7604 9.40432C26.8604 8.56432 27.1204 7.75432 27.4404 6.97432C27.6704 6.41432 28.1004 6.03432 28.6804 5.84432C29.1304 5.69432 29.2904 5.82432 29.2204 6.29432C29.1204 6.93432 28.8604 7.52432 28.6604 8.13432C28.3404 9.12432 28.2304 10.1443 28.0904 11.1643C28.0404 11.5243 28.0904 11.8843 28.2104 12.2343C28.3604 12.6943 28.5704 12.8143 29.0604 12.7843C29.8604 12.7443 30.5204 12.3543 31.1704 11.9543C32.9204 10.8743 34.5004 9.57432 35.9504 8.10432C36.0704 7.98432 36.1904 7.67432 36.4104 7.85432C36.6004 8.00432 36.5204 8.28432 36.4004 8.48432C36.0304 9.11432 35.5204 9.63432 35.0104 10.1443C33.6804 11.4743 32.2704 12.7043 30.6604 13.6843C30.1104 14.0243 29.5204 14.2843 28.8704 14.3643C27.8604 14.4943 27.1104 14.0143 26.7904 13.0543C26.7104 12.8243 26.6704 12.5843 26.6004 12.3543C26.5704 12.2543 26.6004 12.1143 26.4904 12.0743C26.3504 12.0243 26.2804 12.1443 26.2004 12.2343C25.7904 12.7043 25.3004 13.0743 24.7204 13.3043C23.3604 13.8643 22.0004 13.4843 21.1104 12.2943C20.9004 12.0143 20.6704 11.7643 20.5504 11.4243C20.4604 11.1643 20.3104 11.2643 20.1604 11.4143C19.6204 11.9543 19.0904 12.5043 18.4904 12.9743C17.8404 13.4843 17.1304 13.8743 16.3304 14.0943C15.4704 14.3243 14.9504 14.0943 14.5604 13.2843C14.0504 12.2243 14.2704 11.1943 14.6304 10.1643C14.6704 10.0343 14.7304 9.91432 14.7804 9.79432C14.8304 9.65432 15.0304 9.49432 14.8704 9.37432C14.7204 9.26432 14.5904 9.46432 14.4604 9.54432C12.6304 10.6343 10.7304 11.5943 8.80044 12.5043C8.15044 12.8143 7.58044 13.2843 6.88044 13.4943C6.36044 13.6443 5.86044 13.6043 5.45044 13.2243C5.09044 12.8943 5.16044 12.5143 5.58044 12.2743C6.01044 12.0243 6.48044 11.8343 6.96044 11.7343C7.89044 11.5443 8.55044 11.0143 9.07044 10.2543C9.51044 9.61432 9.94044 8.97432 10.1204 8.19432C10.2404 7.66432 10.2604 7.15432 9.97044 6.67432C9.75044 6.29432 9.35044 6.12432 8.94044 6.28432C7.94044 6.65432 7.19044 7.35432 6.52044 8.14432C5.85044 8.93432 5.34044 9.83432 4.82044 10.7243C3.83044 12.4243 2.96044 14.1943 2.29044 16.0443C1.99044 16.8643 1.71044 17.6843 1.34044 18.4743C1.29044 18.5743 1.24044 18.6643 1.18044 18.7543C1.01044 19.0543 0.760445 19.1643 0.430445 19.0643C0.110445 18.9743 0.000444541 18.7143 0.000444541 18.4043C-0.00955546 17.8443 0.150445 17.3143 0.350445 16.8043C1.06044 14.9643 2.07044 13.2643 3.05044 11.5643C3.84044 10.2143 4.57044 8.82432 5.54044 7.58432C6.38044 6.52432 7.32044 5.55432 8.61044 5.06432C9.73044 4.63432 10.3604 4.76432 11.0304 5.48432C11.3804 5.85432 11.6304 6.65432 11.6304 7.51432L11.6004 7.52432ZM20.5804 7.38432C20.5804 7.27432 20.5804 7.17432 20.5804 7.06432C20.5504 6.47432 20.4004 6.32432 19.8104 6.36432C19.1504 6.40432 18.6204 6.72432 18.1404 7.14432C17.1104 8.04432 16.4204 9.17432 15.9104 10.4343C15.7304 10.8843 15.5704 11.3343 15.5804 11.8243C15.5804 12.6443 15.9304 12.9143 16.6904 12.6443C18.8604 11.8843 20.5604 9.84432 20.5904 7.37432L20.5804 7.38432Z" fill="#1E40AF"/>
<path d="M51.6919 7.62403C51.6819 8.28403 51.1319 9.17403 50.4519 10.004C50.3519 10.124 50.0919 10.254 50.2019 10.404C50.3119 10.564 50.5219 10.364 50.6619 10.304C51.9419 9.74403 53.1319 9.02403 54.3019 8.26403C54.5619 8.09403 54.8219 7.93403 55.0919 7.78403C56.0619 7.26403 56.9319 6.61403 57.7819 5.90403C58.6519 5.18403 59.6619 4.78403 60.8419 4.95403C61.6719 5.07403 62.3019 5.82403 62.1519 6.65403C62.0319 7.31403 61.8519 7.96403 61.7019 8.61403C61.5119 9.40403 61.6219 10.164 61.9819 10.884C62.6019 12.134 64.0219 12.494 65.2419 11.744C66.1819 11.164 66.7119 10.334 66.8519 9.23403C66.9519 8.47403 67.1919 7.74403 67.4319 7.02403C67.6619 6.36403 68.1119 5.90403 68.7719 5.67403C69.2119 5.51403 69.4119 5.67403 69.2919 6.13403C69.0819 6.93403 68.7719 7.71403 68.5719 8.51403C68.3519 9.45403 68.1519 10.394 68.1419 11.374C68.1419 11.614 68.2019 11.854 68.2719 12.084C68.4319 12.574 68.7619 12.764 69.2619 12.654C69.7919 12.544 70.2819 12.344 70.7519 12.074C72.7419 10.954 74.4619 9.48403 76.0719 7.89403C76.1819 7.78403 76.2619 7.52403 76.4719 7.69403C76.6519 7.83403 76.6119 8.07403 76.5019 8.25403C76.2719 8.60403 76.0419 8.95403 75.7619 9.25403C74.2719 10.884 72.6319 12.334 70.7619 13.524C70.1919 13.884 69.5719 14.144 68.9019 14.244C67.9419 14.384 67.1719 13.904 66.8719 12.994C66.7919 12.744 66.7219 12.474 66.6519 12.224C66.6219 12.124 66.6519 11.994 66.5119 11.964C66.3819 11.934 66.3219 12.034 66.2519 12.114C65.7019 12.734 65.0519 13.174 64.2319 13.354C63.0319 13.614 62.0319 13.274 61.2619 12.324C61.0119 12.014 60.7319 11.724 60.6019 11.324C60.5119 11.044 60.3819 11.154 60.2319 11.304C59.6219 11.884 59.0519 12.514 58.3619 13.004C57.6819 13.494 56.9619 13.904 56.1219 14.034C55.3919 14.144 55.0219 13.954 54.6719 13.304C54.1719 12.354 54.2519 11.384 54.5619 10.414C54.6619 10.104 54.8019 9.81403 54.9219 9.52403C54.9519 9.44403 55.0519 9.35403 54.9619 9.27403C54.8619 9.17403 54.7619 9.27403 54.6719 9.32403C53.6019 10.014 52.4619 10.594 51.3319 11.174C50.0019 11.864 48.6319 12.484 47.3319 13.224C46.8119 13.514 46.2319 13.594 45.6819 13.254C45.4519 13.114 45.2819 12.944 45.2819 12.644C45.2819 12.354 45.4819 12.234 45.7019 12.114C46.2019 11.844 46.7319 11.664 47.2819 11.534C47.7619 11.424 48.2019 11.204 48.5219 10.834C49.2619 9.99403 49.9319 9.11403 50.1819 7.98403C50.2719 7.59403 50.2819 7.21403 50.1419 6.83403C49.8919 6.14403 49.3619 5.91403 48.7119 6.25403C47.6919 6.78403 46.8619 7.53403 46.2019 8.46403C45.2119 9.85403 44.3919 11.344 43.6319 12.864C42.9519 14.234 42.4019 15.654 41.9019 17.094C41.7319 17.584 41.4919 18.054 41.2719 18.534C41.1219 18.864 40.8719 19.034 40.4919 18.944C40.1219 18.854 40.0219 18.564 40.0319 18.234C40.0519 17.364 40.3919 16.594 40.7519 15.824C41.4919 14.234 42.3419 12.704 43.2419 11.194C43.9519 9.99403 44.6019 8.76403 45.4519 7.65403C46.2219 6.64403 47.1019 5.75403 48.2319 5.14403C50.0919 4.14403 51.6519 5.08403 51.6719 7.65403L51.6919 7.62403ZM60.6819 7.25403C60.6819 7.14403 60.6819 7.04403 60.6819 6.93403C60.6519 6.31403 60.4619 6.14403 59.8419 6.21403C59.2219 6.28403 58.7119 6.60403 58.2419 6.99403C57.1319 7.93403 56.4419 9.16403 55.9219 10.504C55.7719 10.884 55.6619 11.294 55.6719 11.714C55.6919 12.514 56.0219 12.764 56.7619 12.514C58.9519 11.754 60.6319 9.75403 60.6819 7.26403V7.25403Z" fill="#1E40AF"/>
<path d="M70.1705 2.1436C69.8405 2.0936 69.3805 2.1836 69.2505 1.8036C69.1305 1.4536 69.3705 1.0936 69.6305 0.843603C70.0605 0.433603 70.4605 -0.0463966 71.1405 0.00360337C71.6705 0.0436034 71.8805 0.313603 71.7705 0.833603C71.5905 1.6736 71.0005 2.1736 70.1505 2.1436H70.1705Z" fill="#1E40AF"/>
<path d="M30.0824 2.30413C30.0124 2.30413 29.8724 2.29413 29.7224 2.27413C29.1624 2.19413 29.0424 2.00413 29.2324 1.48413C29.4624 0.854125 30.4924 0.124125 31.0724 0.194125C31.6424 0.254125 31.8024 0.474125 31.6824 1.03413C31.5024 1.84413 30.9324 2.32413 30.0824 2.30413Z" fill="#1E40AF"/>
</svg>
