<svg width="81" height="19" viewBox="0 0 81 19" fill="none" xmlns="http://www.w3.org/2000/svg">
<path d="M39.258 13.0687C38.2547 13.0687 37.2387 13.0687 36.2354 13.0687C36.083 13.0687 35.8163 12.9163 35.8163 13.2973C35.8163 13.6529 36.0322 13.6148 36.2735 13.6148C38.3182 13.6148 40.3756 13.6275 42.4204 13.6021C42.8649 13.6021 42.9284 13.7418 42.9284 14.1355C42.9284 14.9356 43.1189 15.7357 43.284 16.4977C43.411 17.0565 43.3475 17.6407 43.5507 18.1868C43.6142 18.3519 43.4872 18.39 43.3475 18.39C42.8522 18.39 42.3695 18.39 41.8742 18.39C41.7726 18.39 41.6329 18.4154 41.6456 18.2503C41.6837 17.5899 41.2519 17.0057 41.3535 16.3326C41.3789 16.2056 41.3789 16.0405 41.3281 15.9262C41.2011 15.6214 41.0614 15.4182 40.6296 15.4309C38.8262 15.4817 37.0228 15.4563 35.2194 15.4436C34.8003 15.4436 34.6098 15.6468 34.4701 16.0151C34.3304 16.358 34.1526 16.7136 33.9113 16.993C33.6065 17.3486 33.4795 17.7931 33.2382 18.1741C33.1239 18.3646 33.0223 18.3773 32.8572 18.3773C32.4127 18.3773 31.9682 18.3773 31.5237 18.3773C31.2316 18.3773 30.9268 18.4662 31.2443 17.9709C31.6634 17.3105 31.9809 16.5866 32.3619 15.9008C32.654 15.3674 32.8953 14.7578 33.2382 14.2879C33.67 13.6783 34.0002 13.0306 34.305 12.3575C34.5209 11.9003 34.8257 11.5066 35.0797 11.0748C35.321 10.6683 35.5877 10.2365 35.7655 9.83014C36.0195 9.24594 36.4894 8.78873 36.6545 8.14103C36.7307 7.84892 36.9212 7.37902 37.3022 7.18852C37.3911 7.15042 37.3911 7.08692 37.4165 7.02342C37.5689 6.71861 37.8102 6.42651 37.8737 6.09631C37.9372 5.76611 38.2166 5.57561 38.2801 5.2327C38.3182 5.0549 38.4833 4.8009 38.6103 4.6104C38.8897 4.22939 39.0675 3.81029 39.2707 3.39119C39.4231 3.07368 39.6136 2.73078 39.8295 2.43868C40.0581 2.12118 40.2232 1.79097 40.3883 1.44807C40.528 1.14327 40.6804 0.787664 40.9471 0.559062C41.0614 0.457461 41.2392 0.457461 41.3916 0.482861C41.7726 0.559062 42.1536 0.533662 42.5347 0.520962C43.2332 0.495561 43.4618 0.686063 43.4618 1.39727C43.4618 1.70207 43.3602 2.07037 43.4872 2.29898C43.7793 2.80698 43.5761 3.39119 43.7666 3.84839C44.0079 4.4199 43.8174 5.0422 44.0587 5.52481C44.3254 6.05821 44.0714 6.65511 44.3254 7.06152C44.7318 7.73462 44.3 8.53473 44.808 9.13164C44.8207 9.15704 44.8334 9.19514 44.8334 9.22054C44.681 10.046 45.0366 10.8335 45.1509 11.6209C45.2525 12.2813 45.2398 12.9798 45.5446 13.6148C45.697 13.9323 45.5065 14.3641 45.6589 14.7324C45.8621 15.215 45.7351 15.7865 45.8875 16.2437C46.078 16.8152 46.1288 17.3613 46.1288 17.9455C46.1288 17.9582 46.1288 17.9836 46.1288 17.9963C46.2219 18.2588 46.1118 18.39 45.7986 18.39C45.3668 18.39 44.935 18.3646 44.5159 18.39C44.1349 18.4281 44.0587 18.2249 44.0206 17.9201C44.0206 17.9074 44.0206 17.8947 44.0206 17.8693C44.1857 17.0057 43.8428 16.1802 43.7031 15.3674C43.6015 14.8213 43.7031 14.2244 43.4618 13.7164C43.2586 13.2973 43.4364 12.8274 43.2586 12.4718C42.9919 11.913 43.157 11.3034 42.9792 10.7826C42.776 10.2365 42.8903 9.66504 42.6997 9.19514C42.4838 8.64903 42.6744 8.01403 42.4204 7.62032C42.0774 7.07422 42.3949 6.51541 42.1663 6.07091C41.7599 5.2835 42.0393 4.38179 41.6329 3.61979C41.5694 3.50549 41.5059 3.50549 41.417 3.50549C41.3154 3.50549 41.2265 3.50549 41.163 3.61979C41.0614 3.79759 41.0233 4.06429 41.1122 4.14049C41.544 4.5215 41.29 5.0168 41.3662 5.4486C41.3916 5.61371 41.2519 5.85501 41.5821 5.90581C41.6837 5.91851 41.6456 6.09631 41.6456 6.19791C41.6456 6.52811 41.5186 6.95992 41.671 7.18852C42.0393 7.76002 41.6964 8.44583 41.9631 8.90303C42.2806 9.44914 42.0012 9.99524 42.2171 10.4524C42.4712 10.9859 42.3949 11.5193 42.4965 12.0527C42.5346 12.2559 42.5982 12.4972 42.6871 12.7004C42.8395 13.0687 42.6236 13.0433 42.3949 13.0433C41.3535 13.0433 40.3121 13.0433 39.2707 13.0433L39.258 13.0687ZM38.6992 11.5066C39.1437 11.5066 39.5882 11.5066 40.0327 11.5066C40.1724 11.5066 40.3375 11.5066 40.3375 11.3288C40.3375 10.8589 40.4899 10.3 40.2867 9.93174C40.0073 9.41104 40.1343 8.91573 40.0708 8.42043C40.0581 8.30613 40.0708 8.09023 40.02 8.07753C39.6771 7.98863 39.8168 7.72192 39.7914 7.53142C39.7787 7.34092 39.7914 7.13772 39.7914 6.93452C39.7914 6.83292 39.8549 6.64241 39.6517 6.66781C39.512 6.69321 39.2453 6.69321 39.258 6.87102C39.2961 7.18852 38.9913 7.34092 38.9786 7.58222C38.9786 7.81082 38.6484 7.68382 38.6865 7.91242C38.75 8.26803 38.4198 8.45853 38.3055 8.75063C38.0007 9.58884 37.3657 10.2746 37.0736 11.151C36.9466 11.5574 37.1244 11.4939 37.3149 11.5066C37.7721 11.532 38.2293 11.5066 38.6865 11.5066H38.6992Z" fill="#1E40AF"/>
<path d="M56.3746 2.69336C57.3018 2.69336 58.2416 2.69336 59.1687 2.69336C59.7656 2.69336 60.2482 2.97276 60.7816 3.17596C61.1499 3.32836 61.3785 3.56967 61.6579 3.78557C62.0389 4.07767 62.1913 4.47137 62.2675 4.91588C62.3437 5.38578 62.331 5.86839 62.2675 6.35099C62.1786 7.113 61.8103 7.7226 61.3658 8.31951C61.1499 8.61161 60.9721 8.90371 60.7054 9.15772C60.2482 9.60222 59.7529 9.91972 59.1306 10.1737C58.2035 10.5547 57.2891 10.3261 56.3873 10.3896C55.4475 10.4531 54.495 10.3896 53.5425 10.415C53.3901 10.415 53.098 10.2753 53.1107 10.5547C53.1234 10.7325 53.2631 10.9738 53.606 10.9738C55.3967 10.9484 57.1875 10.9738 58.9782 10.9738C59.5624 10.9738 60.1466 11.558 60.1466 12.1422C60.1466 12.3327 60.0958 12.5359 60.3498 12.6375C60.4641 12.6883 60.4133 12.828 60.4133 12.9296C60.4133 13.2853 60.4133 13.6282 60.4133 13.9838C60.4133 14.187 60.4641 14.4156 60.2355 14.5426C60.1974 14.568 60.172 14.6188 60.172 14.6569C60.1974 15.5967 59.6767 16.4857 59.8672 17.4382C59.8926 17.5398 59.918 17.6414 59.9561 17.7303C60.1677 18.1706 60.028 18.3907 59.537 18.3907C59.0671 18.3907 58.5845 18.3907 58.1146 18.3907C57.9241 18.3907 57.8606 18.3272 57.8098 18.1494C57.6447 17.5906 57.4288 17.0191 57.5812 16.4603C57.6955 16.0285 57.8606 15.584 57.9368 15.1522C58.0638 14.4537 58.3813 13.7044 57.8606 12.9931C57.759 12.8407 57.6955 12.7899 57.5304 12.7899C56.0317 12.7899 54.5331 12.7899 53.0472 12.7899C52.8059 12.7899 52.6916 12.8534 52.6916 13.1201C52.6916 13.8695 52.3487 14.568 52.2852 15.2792C52.2344 15.9015 51.828 16.4476 51.955 17.0953C51.9931 17.2731 52.0566 17.5017 51.7391 17.6033C51.6121 17.6414 51.6756 17.9081 51.6883 18.0732C51.701 18.3145 51.6121 18.3907 51.3708 18.378C50.8628 18.3653 50.3675 18.378 49.8595 18.378C49.7579 18.378 49.5801 18.4415 49.5801 18.2383C49.5801 18.0986 49.4785 17.8954 49.6817 17.8446C49.8468 17.7938 49.8468 17.7049 49.8468 17.5779C49.8468 17.1969 49.9865 16.8286 50.05 16.4857C50.1389 15.9269 50.3548 15.3808 50.3929 14.8093C50.4437 14.0854 50.6342 13.3869 50.8374 12.6883C50.9136 12.4089 50.7866 12.066 50.9517 11.7993C51.1803 11.4056 51.0279 10.9484 51.1549 10.5547C51.2946 10.0975 51.2692 9.57682 51.4597 9.20852C51.6756 8.77671 51.5232 8.33221 51.7137 8.01471C51.9931 7.5321 51.7772 6.9479 52.0058 6.57959C52.2852 6.14779 52.0439 5.65248 52.2598 5.37308C52.6281 4.90318 52.336 4.33167 52.6662 3.88717C52.7678 3.74747 52.7932 3.53157 52.7932 3.32836C52.7932 2.69336 52.7932 2.69336 53.4536 2.69336C54.4188 2.69336 55.384 2.69336 56.3492 2.69336H56.3746ZM56.0825 8.75131C56.4508 8.75131 56.8191 8.75131 57.1875 8.75131C57.9749 8.75131 58.7242 8.63701 59.3084 8.01471C59.6767 7.621 59.9942 7.2019 59.9815 6.64309C59.9815 6.24939 59.9815 5.88109 59.7656 5.46198C59.5497 5.05558 59.156 4.85238 58.9274 4.83968C57.5812 4.76348 56.2349 4.80158 54.8887 4.80158C54.7363 4.80158 54.6093 4.82698 54.5712 4.99208C54.495 5.36038 54.3807 5.71599 54.3553 6.09699C54.3299 6.61769 53.987 7.0876 54.0886 7.6464C54.0886 7.6718 54.0378 7.7099 53.9997 7.7353C53.733 7.9258 53.7711 8.23061 53.8473 8.44651C53.9235 8.64971 54.1775 8.76401 54.4569 8.75131C54.9903 8.72591 55.5237 8.75131 56.0571 8.75131H56.0825Z" fill="#1E40AF"/>
<path d="M56.1294 0.584473C57.7804 0.584473 59.4314 0.520972 61.0824 0.609873C61.819 0.647973 62.5811 0.889275 63.1272 1.51158C63.2288 1.62588 63.3685 1.75288 63.5082 1.82908C63.8384 2.01958 64.0162 2.29899 64.2448 2.59109C64.6385 3.11179 64.7401 3.696 64.9941 4.2421C65.2481 4.80091 65.1973 5.30891 65.21 5.85502C65.21 6.45192 64.956 6.99803 64.7782 7.54413C64.6512 7.93784 64.5369 8.30614 64.2448 8.64904C63.8638 9.08085 63.4193 9.44915 63.0002 9.83015C62.6954 10.1096 62.3525 10.3128 61.9334 10.4017C61.781 10.4398 61.819 10.5541 61.9206 10.6684C62.162 10.9224 62.4287 11.1383 62.6573 11.4177C62.9113 11.7479 63.1653 12.04 63.1145 12.4845C63.0891 12.675 63.1526 12.8909 63.2542 12.9925C63.4828 13.2211 63.4574 13.5259 63.3558 13.7037C63.1145 14.1609 63.1272 14.6181 63.1018 15.1007C63.1018 15.342 63.2542 15.6595 62.8605 15.7738C62.8351 15.7738 62.8224 15.9135 62.8224 15.9897C62.8224 16.5612 62.8224 17.12 62.8224 17.6915C62.8224 17.8439 62.8732 17.9709 62.9621 18.0598C63.0383 18.136 63.1399 18.1868 63.0764 18.3138C63.0256 18.4154 62.9113 18.3773 62.8351 18.3773C62.2255 18.3773 61.6158 18.3773 60.9935 18.3773C60.8665 18.3773 60.7395 18.4027 60.7014 18.1868C60.5744 17.5264 60.3458 16.866 60.5363 16.2056C60.7141 15.596 60.7141 14.961 60.9173 14.3514C61.0951 13.7799 61.184 13.056 60.8284 12.4337C60.7522 12.3067 60.7141 12.1416 60.7268 12.0019C60.7522 11.5066 60.4601 11.2018 60.1045 10.9605C59.9648 10.8589 59.9902 10.6176 59.7489 10.6176C59.6981 10.6176 59.6854 10.4144 59.8505 10.4017C60.4982 10.3636 60.8284 9.83015 61.2602 9.47455C61.5905 9.20785 61.6286 8.69984 62.0731 8.52204C62.0604 7.93784 62.5303 7.56953 62.6954 7.04883C62.9621 6.22332 62.9621 5.44862 62.8351 4.63581C62.7462 4.0643 62.3652 3.6706 62.0223 3.2515C61.7302 2.89589 61.1586 2.92129 60.9554 2.45139C60.9554 2.45139 60.93 2.42599 60.9173 2.43869C60.3585 2.56569 59.9521 2.10849 59.3806 2.13389C57.2216 2.19739 55.0626 2.15929 52.9163 2.15929C52.4591 2.15929 52.3448 2.32439 52.294 2.79429C52.1924 3.5944 52.1035 4.40721 51.7733 5.16921C51.7352 5.25811 51.7606 5.38511 51.7479 5.48672C51.7225 5.81692 51.8622 6.18522 51.5066 6.43922C51.4558 6.47732 51.5066 6.61703 51.4812 6.70593C51.4177 6.99803 51.659 7.36633 51.2272 7.56953C51.1764 7.59493 51.2272 7.79814 51.2018 7.92514C51.151 8.25534 51.3542 8.63634 50.9605 8.91575C50.8716 8.97925 50.9478 9.27135 50.9224 9.44915C50.8843 9.71585 51.0875 10.0588 50.6811 10.2112C50.6684 10.2112 50.6557 10.262 50.6557 10.3001C50.7573 10.8208 50.4143 11.278 50.4016 11.7606C50.3889 12.4591 50.1222 13.0814 50.0587 13.7672C49.9952 14.5546 49.6904 15.3039 49.6142 16.1167C49.5761 16.5739 49.3729 17.0057 49.3094 17.4756C49.2713 17.7042 49.0808 17.9709 49.0808 18.263C49.0808 18.4154 48.9792 18.4281 48.8649 18.4281C48.3188 18.4281 47.76 18.4281 47.2139 18.4281C46.998 18.4281 46.8456 18.0344 47.0234 17.9455C47.3917 17.7804 47.2012 17.4883 47.252 17.2597C47.3028 17.0057 47.0869 16.6755 47.4933 16.5358C47.506 16.5358 47.5314 16.485 47.5187 16.4596C47.3536 15.7865 47.7219 15.1769 47.8489 14.5546C48.0013 13.8434 48.0648 13.1068 48.268 12.3956C48.4077 11.9257 48.4458 11.405 48.5728 10.9478C48.7252 10.4017 48.6871 9.80475 48.8649 9.32215C49.0427 8.86494 48.9157 8.36964 49.1189 8.02674C49.3856 7.55683 49.1697 6.99803 49.3983 6.68053C49.7031 6.24872 49.4491 5.77882 49.6777 5.46132C49.9825 5.04221 49.7158 4.53421 49.9317 4.2294C50.3128 3.6833 50.0588 3.06099 50.3509 2.51489C50.5541 2.12119 50.5795 1.62588 50.6303 1.16868C50.6684 0.800374 50.7573 0.622573 51.1891 0.622573C52.8401 0.647973 54.4911 0.622573 56.1421 0.622573L56.1294 0.584473Z" fill="#1E40AF"/>
<path d="M0.0525584 13.3471C0.0525584 12.8391 0.0525584 12.4708 0.0525584 12.1025C0.0525584 11.8866 0.0906588 11.7596 0.344661 11.7723C0.776465 11.7977 1.19557 11.785 1.62737 11.7723C1.83057 11.7723 1.89407 11.8358 1.89407 12.039C1.89407 12.3565 1.86867 12.6867 1.89407 13.0042C1.97028 13.8297 2.10998 14.668 2.64338 15.3157C3.15139 15.938 3.68479 16.5222 4.4722 16.8651C5.1707 17.1572 5.85651 17.3985 6.60581 17.3858C7.30432 17.3604 8.00283 17.4747 8.70133 17.2969C9.22204 17.1699 9.70464 16.9032 10.2507 16.827C10.3904 16.8016 10.3142 16.6365 10.4412 16.5603C10.962 16.2682 11.4319 15.938 11.8383 15.4808C12.105 15.1887 12.2574 14.8585 12.4479 14.5283C12.9178 13.69 12.9178 12.7629 12.7019 11.8739C12.5114 11.0865 12.0161 10.3626 11.3303 9.93081C10.6063 9.47361 9.84434 9.0037 8.98074 8.8132C8.40923 8.6989 7.83773 8.5973 7.25352 8.483C6.93602 8.4195 6.55501 8.3814 6.30101 8.2544C6.05971 8.1401 5.75491 7.98769 5.51361 7.84799C5.2088 7.65749 4.9802 7.39079 4.6881 7.22569C4.4214 7.07329 4.6754 6.75578 4.3706 6.62878C4.16739 6.53988 4.24359 4.79997 4.4087 4.60947C4.6627 4.31736 4.7643 3.88556 5.1072 3.66966C5.47551 3.44106 5.78031 3.14895 6.17401 2.93305C6.41531 2.80605 6.82172 2.84415 6.94872 2.48855C6.94872 2.46315 7.02492 2.42505 7.05032 2.42505C7.68532 2.60285 8.20603 2.09484 8.82833 2.13294C9.43794 2.17104 10.1364 1.96784 10.6317 2.19644C11.0001 2.36155 11.4192 2.39965 11.7875 2.61555C12.2447 2.86955 12.5368 3.27595 12.9051 3.58076C13.0702 3.72046 13.3877 4.08876 13.2734 4.50786C13.2226 4.71107 13.1464 4.99047 13.4893 5.15557C13.6163 5.21907 13.5655 5.56197 13.502 5.76518C13.4512 5.95568 13.2607 5.90488 13.1083 5.90488C12.486 5.90488 11.851 5.90488 11.2287 5.90488C11.1017 5.90488 10.8604 5.93028 10.8985 5.76518C11.0128 5.32067 10.5809 5.07937 10.5936 4.68567C10.5936 4.49516 10.4285 4.54596 10.3523 4.48246C9.97134 4.17766 9.57764 3.94906 9.06964 3.97446C8.79023 3.97446 8.51083 3.99986 8.24413 3.97446C7.63452 3.89826 7.21542 4.31736 6.73282 4.54596C6.54231 4.64757 6.73282 4.92697 6.60581 5.09207C6.35181 5.38417 6.52961 5.63817 6.64392 5.93028C6.78362 6.27318 7.07572 6.32398 7.34242 6.47638C7.97743 6.85739 8.70133 6.84469 9.38714 7.03519C9.83164 7.16219 10.2507 7.13679 10.6952 7.20029C11.1144 7.25109 11.5208 7.40349 11.9018 7.53049C12.3717 7.68289 12.8416 7.94959 13.2607 8.3052C13.756 8.7243 14.2259 9.1307 14.5815 9.68951C14.899 10.1975 15.1657 10.6674 15.1276 11.2897C15.1022 11.6453 15.5086 11.912 15.3943 12.3311C15.2292 12.8899 15.2292 13.5249 15.0514 14.0456C14.8609 14.6299 14.5561 15.2268 14.2005 15.7856C13.8449 16.3571 13.3242 16.7127 12.9432 17.2207C12.8543 17.3477 12.486 17.3985 12.2828 17.5636C11.9272 17.8684 11.4446 17.9446 11.1017 18.1605C10.746 18.3764 10.2253 18.1605 10.0094 18.6177C10.0094 18.6431 9.92054 18.6558 9.88244 18.6558C8.71403 18.6431 7.58372 19.1003 6.38991 18.9352C6.08511 18.8971 5.80571 18.8844 5.51361 18.7193C5.2215 18.5669 4.8024 18.6812 4.4341 18.6558C4.26899 18.6558 4.01499 18.7701 3.97689 18.4399C3.97689 18.4145 3.86259 18.3764 3.81179 18.3891C3.37999 18.5542 3.08788 18.1732 2.75768 18.0589C2.57988 17.9954 2.30048 17.7922 2.08458 17.6017C1.58927 17.1445 1.04317 16.7381 0.674864 16.1666C0.535163 15.9507 0.382761 15.6967 0.344661 15.4427C0.24306 14.6934 -0.137943 13.9821 0.0525584 13.3471Z" fill="#1E40AF"/>
<path d="M71.4559 18.9357C71.0241 18.9357 70.605 18.9484 70.1732 18.9357C69.7414 18.923 69.2715 19.0627 68.8905 18.6817C68.8524 18.6436 68.7381 18.6563 68.6619 18.669C68.1031 18.7452 67.6967 18.3896 67.2268 18.2118C66.4521 17.9451 65.9314 17.3736 65.3853 16.8148C65.2202 16.6497 65.144 16.3703 65.0043 16.2179C64.7122 15.9004 64.8646 15.4305 64.5471 15.1638C64.4455 15.0749 64.4836 14.9733 64.4836 14.8717C64.4836 14.0208 64.4836 13.1572 64.4836 12.3063C64.4836 12.0523 64.4836 11.938 64.8392 12.0269C65.2075 12.1158 65.6393 12.0904 66.0203 12.0269C66.287 11.9888 66.3251 12.0777 66.3251 12.2682C66.3251 12.6238 66.3505 12.9667 66.3251 13.3223C66.287 13.9573 66.541 14.5161 66.795 15.0495C67.0617 15.6083 67.4173 16.2433 67.938 16.4719C68.4206 16.7005 68.827 17.0561 69.3985 17.2085C69.9065 17.3355 70.4907 17.5514 70.9225 17.5133C71.6464 17.4498 72.4084 17.5133 73.1196 17.3228C73.7292 17.145 74.3515 16.9672 74.9358 16.6243C75.6851 16.1798 76.2693 15.5956 76.7138 14.9352C77.3615 13.9573 77.4504 12.8778 77.0186 11.7221C76.7519 11.0236 76.2312 10.6045 75.7232 10.1727C74.9992 9.55035 74.1229 9.22015 73.145 8.99154C72.3576 8.81374 71.5194 8.68674 70.7447 8.35654C70.2748 8.16604 69.8557 7.87393 69.3604 7.72153C69.1191 7.64533 68.954 7.27703 68.8143 7.02303C68.6365 6.70552 68.7762 6.27372 68.446 5.99432C68.4206 5.96892 68.4587 5.82922 68.5095 5.79112C68.7508 5.63872 68.7635 5.39741 68.7127 5.18151C68.6111 4.80051 68.8651 4.4322 69.0556 4.356C69.3731 4.229 69.208 3.975 69.3604 3.8226C69.6652 3.5305 70.0462 3.32729 70.3764 3.07329C70.5542 2.93359 71.0622 2.83199 71.24 2.67959C71.748 2.26049 72.3449 2.57799 72.8656 2.28589C73.4117 1.98108 74.1356 2.06998 74.6944 2.23509C75.0374 2.33669 75.4057 2.34939 75.7232 2.47639C76.0788 2.60339 76.409 2.85739 76.7011 3.11139C76.9424 3.31459 77.1456 3.5559 77.3361 3.8226C77.5647 4.1401 77.8568 5.51171 77.7171 5.84192C77.6663 5.95622 77.5774 5.94352 77.5012 5.94352C76.8916 5.94352 76.282 5.94352 75.6724 5.94352C75.4311 5.94352 75.3422 5.84192 75.3549 5.61331C75.3676 5.09261 74.9992 4.82591 74.6309 4.55921C74.0848 4.1528 73.4752 3.975 72.8148 4.0258C72.2179 4.0766 71.6718 4.356 71.2146 4.71161C71.0749 4.82591 70.7066 5.18151 70.8717 5.48631C71.1003 5.91812 71.2654 6.45152 71.7734 6.66742C72.0909 6.79442 72.4592 6.80712 72.764 6.97223C73.3101 7.26433 73.907 7.13733 74.4404 7.27703C74.8723 7.39133 75.4311 7.35323 75.6851 7.55643C76.0407 7.84853 76.5487 7.55643 76.8027 8.01364C76.8789 8.15334 77.2091 8.05174 77.425 8.24224C77.9584 8.71214 78.4664 9.19475 78.8855 9.80435C79.1649 10.1981 79.2284 10.668 79.5332 11.0363C79.6094 11.1252 79.5586 11.303 79.5713 11.4427C79.5967 11.7475 79.5967 12.0523 79.7999 12.319C79.8888 12.4333 79.8888 12.6365 79.8253 12.7127C79.4824 13.0937 79.6475 13.5763 79.5459 13.9827C79.4189 14.5034 79.1522 14.986 78.949 15.4813C78.5934 16.3703 77.7806 16.8783 77.1456 17.5133C77.0059 17.653 76.7138 17.8435 76.409 17.907C76.1296 17.9578 75.8883 18.1864 75.6216 18.3388C75.5835 18.3642 75.5581 18.4277 75.5327 18.4277C75.2025 18.4023 74.885 18.6944 74.669 18.669C74.0975 18.6182 73.6784 19.0246 73.145 18.9992C72.5989 18.9738 72.0401 18.9992 71.494 18.9992L71.4559 18.9357Z" fill="#1E40AF"/>
<path d="M9.70732 0.0259959C10.101 0.0259959 10.5074 0.0132958 10.9011 0.0259959C11.117 0.0259959 11.3964 -0.113705 11.4853 0.254598C11.4853 0.279998 11.625 0.292698 11.7012 0.292698C12.895 0.4451 13.9238 0.965804 14.7366 1.85481C14.9144 2.05801 15.0795 2.26122 15.3081 2.42632C15.4986 2.57872 15.2573 2.99782 15.6637 3.04862C15.8669 3.83603 16.3241 4.55994 16.2352 5.43624C16.1971 5.77915 16.1463 5.94425 15.7653 5.91885C15.3081 5.89345 14.8509 5.91885 14.3937 5.91885C14.2159 5.91885 14.0762 5.89345 14.1143 5.67754C14.2413 5.11874 13.6952 4.68694 13.8349 4.12813C13.4538 4.02653 13.5555 3.60743 13.3649 3.35342C13.1744 3.09942 12.9077 2.85812 12.7553 2.57872C12.6537 2.38822 12.5013 2.45172 12.3997 2.36282C12.0822 2.12151 11.7139 1.99451 11.3456 1.82941C10.3169 1.35951 9.26281 1.65161 8.2468 1.63891C7.8277 1.63891 7.3197 1.80401 6.87519 2.07071C6.65929 2.19771 6.35449 2.33742 6.07509 2.45172C5.59248 2.64222 5.13528 2.90892 4.75427 3.28992C4.51297 3.51853 4.29707 3.78523 4.08117 4.02653C3.56046 4.62344 3.54776 6.83325 4.08117 7.44286C4.38597 7.77306 4.74157 8.10327 5.18608 8.34457C5.60518 8.57317 6.03698 8.70017 6.48149 8.87797C7.2816 9.18277 8.1198 9.22087 8.93261 9.43678C9.36441 9.55108 9.80892 9.71618 10.2026 9.90668C10.9519 10.275 11.6123 10.8084 12.006 11.6212C12.3743 12.4086 12.2346 13.2214 12.133 13.9707C12.0568 14.5676 11.4853 15.0121 11.0408 15.482C10.5963 15.9519 10.0375 16.1932 9.49141 16.4472C9.13581 16.6123 8.71671 16.7647 8.2722 16.752C7.7261 16.752 7.16729 16.7012 6.62119 16.752C5.80838 16.8282 5.07178 16.5742 4.39867 16.244C3.99227 16.0408 3.42076 15.8376 3.23026 15.3931C2.98896 14.847 2.69686 14.3136 2.60796 13.704C2.55715 13.323 2.43015 12.942 2.44285 12.5483C2.45555 12.0022 2.64606 11.799 3.17946 11.799C3.64936 11.799 4.13197 11.8244 4.60187 11.799C4.97018 11.7736 5.05908 11.9133 5.02098 12.2435C4.99558 12.3959 5.02098 12.5483 5.02098 12.7007C4.99558 13.6786 5.33848 14.3898 6.30369 14.7581C7.2054 15.101 8.46271 15.0756 9.14851 14.466C9.40251 14.2374 9.50412 13.9199 9.64382 13.6151C9.79622 13.2722 9.65652 13.0309 9.59302 12.7642C9.50412 12.4086 9.17391 12.2181 8.90721 12.0022C8.43731 11.5958 7.7896 11.5196 7.2816 11.2275C6.71009 10.8973 6.01158 11.2275 5.52898 10.7322C5.51628 10.7195 5.46548 10.7195 5.44008 10.7195C4.85588 10.7449 4.41137 10.402 3.90337 10.2242C3.38266 10.0464 3.10326 9.65268 2.73496 9.36058C2.31585 9.00497 2.09995 8.44617 1.84595 7.93816C1.40145 7.07456 1.76975 6.21095 1.61735 5.37274C2.04915 5.11874 1.69355 4.53453 2.11265 4.24243C2.26505 4.12813 2.16345 3.82333 2.34125 3.62013C2.68416 3.22642 2.84926 2.64222 3.28106 2.35012C3.70016 2.05801 4.01767 1.67701 4.47487 1.42301C4.97018 1.15631 5.47818 0.826103 5.98618 0.699102C6.46879 0.572101 6.91329 0.216498 7.4721 0.330799C7.6372 0.368899 7.9039 0.4705 7.9674 0.127597C7.9801 0.038696 8.1579 0.0767964 8.2595 0.0767964C8.72941 0.0767964 9.21201 0.0767964 9.68192 0.0767964L9.70732 0.0259959Z" fill="#1E40AF"/>
<path d="M74.1136 0.026139C74.3549 0.026139 74.6089 0.026139 74.8502 0.026139C75.0534 0.026139 75.282 -0.0373615 75.3963 0.229341C75.4217 0.280141 75.536 0.305541 75.5995 0.292841C76.1964 0.15314 76.7425 0.419842 77.2632 0.610344C77.4918 0.699245 77.7966 0.813546 78.0379 1.04215C78.2157 1.21995 78.5078 1.35965 78.7618 1.52475C79.1555 1.77875 79.3714 2.19786 79.7778 2.43916C79.9429 2.54076 79.6762 2.94716 80.0699 2.99796C79.9937 3.39167 80.4636 3.59487 80.4001 4.01397C80.362 4.29338 80.2858 4.58548 80.616 4.89028C80.9843 5.23318 80.5779 5.89359 80.0699 5.89359C79.5619 5.89359 79.0666 5.89359 78.5586 5.89359C78.3427 5.89359 78.2538 5.81739 78.2792 5.60149C78.2792 5.46179 78.2792 5.32208 78.2792 5.19508C78.33 4.59818 78.076 4.14097 77.7966 3.62027C77.568 3.20117 77.2759 2.92176 76.9711 2.61696C76.7298 2.37566 76.2853 2.32486 76.1329 2.10896C75.8281 1.68985 75.2566 2.10896 75.028 1.62635C75.0026 1.57555 74.8629 1.57555 74.774 1.57555C74.1771 1.57555 73.5802 1.55015 72.9832 1.57555C72.4752 1.60095 71.9418 1.76605 71.51 1.91846C71.1036 2.05816 70.621 2.43916 70.2146 2.59156C69.4145 2.88366 69.0335 3.54407 68.5382 4.07747C68.3223 4.31878 68.0683 4.71248 68.1699 5.15698C68.208 5.29668 68.2715 5.49989 67.9921 5.63959C67.8143 5.72849 67.7889 6.16029 68.0175 6.29999C68.1953 6.41429 68.1826 6.5286 68.1826 6.6556C68.1826 6.8842 68.2461 7.0366 68.4239 7.2398C68.7922 7.67161 69.1605 8.12881 69.6177 8.44631C69.8463 8.61141 70.1511 8.92892 70.5575 8.81461C70.6718 8.77651 70.8496 8.76381 70.8623 8.97972C70.8623 9.05592 70.9385 9.08132 70.9893 9.06862C71.5862 8.97972 72.0815 9.41152 72.6784 9.37342C72.9832 9.36072 73.3388 9.48772 73.6183 9.64012C73.8596 9.76712 74.1771 9.71632 74.3041 9.83062C74.5454 10.0719 74.9137 9.99573 75.1296 10.3005C75.2312 10.4402 75.409 10.745 75.7519 10.6434C75.9678 10.5799 75.9424 10.8466 76.0059 10.9355C76.6663 11.8118 76.7552 12.8278 76.6409 13.882C76.6155 14.0471 76.4885 14.1106 76.4377 14.263C76.2726 14.771 76.0567 15.3552 75.5995 15.5711C75.2058 15.7489 74.9137 16.0664 74.5073 16.2315C73.3515 16.6887 72.1577 16.8284 70.9385 16.7776C70.24 16.7522 69.605 16.5871 68.9446 16.295C68.081 15.914 67.6365 15.2536 67.2301 14.5297C66.8237 13.8185 66.8999 13.0057 66.9253 12.2182C66.9253 11.9261 67.1793 11.9515 67.3825 11.9769C67.9286 12.0404 68.4747 12.0531 69.0208 11.9769C69.2494 11.9388 69.3002 12.0277 69.3002 12.1928C69.3256 12.6373 69.3256 13.0565 69.4653 13.5137C69.6685 14.136 70.2781 14.771 70.9385 14.8853C71.2306 14.9361 71.5227 14.9488 71.8148 15.1139C72.0942 15.2663 72.399 14.9615 72.7165 14.898C73.7579 14.6821 74.3422 13.7677 74.0628 12.7262C73.9739 12.3833 73.6944 11.9642 73.2372 11.9515C72.9578 11.9515 72.8562 11.7102 72.6911 11.6213C72.0942 11.2911 71.3449 11.38 70.7988 10.9482C70.7607 10.9228 70.6718 10.9101 70.621 10.9355C70.0368 11.0879 69.5288 10.745 69.0208 10.6053C68.3223 10.4021 67.7 9.97032 67.1666 9.39882C66.9126 9.11942 66.8745 8.63681 66.4173 8.53521C66.5062 8.15421 66.0109 7.97641 66.0998 7.6081C66.2141 7.1763 65.8204 6.808 65.9601 6.41429C66.1252 5.93169 65.922 5.36019 66.1379 4.96648C66.4681 4.34418 66.6459 3.64567 67.1539 3.11227C67.5857 2.65506 67.954 2.10896 68.5001 1.77875C69.1097 1.41045 69.6812 0.915147 70.4432 0.851646C70.7099 0.343642 71.3703 0.788146 71.7005 0.330942C71.7894 0.216641 72.1323 0.330942 72.3609 0.292841C72.6022 0.267441 72.9197 0.445243 73.0467 0.0642393C73.0467 0.026139 73.2118 0.026139 73.3007 0.026139C73.5929 0.026139 73.885 0.026139 74.1771 0.026139H74.1136Z" fill="#1E40AF"/>
<path d="M21.3616 18.3903C19.4439 18.3903 17.5389 18.3903 15.6211 18.3903C15.075 18.3903 14.9607 18.1871 15.1893 17.6791C15.2401 17.5775 15.4052 17.5775 15.3671 17.4505C15.202 16.7774 15.6211 16.1932 15.6846 15.5328C15.7354 15.0248 15.7862 14.4406 15.9894 14.0215C16.1545 13.6786 16.0529 13.3229 16.218 13.0689C16.5609 12.5228 16.3196 11.837 16.6625 11.3036C16.6752 11.2782 16.7133 11.2528 16.7133 11.2274C16.6117 10.5797 16.98 10.0336 17.0308 9.41131C17.0816 8.82711 17.2467 8.25561 17.4372 7.6968C17.5261 7.4174 17.4118 7.0618 17.5134 6.79509C17.6786 6.36329 17.6151 5.82988 17.7929 5.48698C18.0723 4.96628 17.7929 4.31857 18.2755 3.88677C18.3644 3.81057 18.2755 3.55657 18.3009 3.39146C18.3517 3.12476 18.1231 2.76916 18.5422 2.62946C18.5549 2.62946 18.5676 2.56596 18.5676 2.54056C18.4025 1.93095 18.8851 1.43565 18.847 0.851442C18.8343 0.62284 18.9232 0.546639 19.1391 0.572039C19.2407 0.572039 19.355 0.572039 19.4566 0.572039C23.0253 0.572039 26.5813 0.572039 30.1501 0.572039C30.239 0.572039 30.3279 0.572039 30.4295 0.572039C30.6835 0.572039 31.001 0.445038 31.1788 0.61014C31.382 0.800641 30.9629 0.965743 31.001 1.21974C31.0264 1.37215 30.9248 1.56265 30.9756 1.71505C31.0899 2.05795 30.6962 2.12145 30.6454 2.36275C30.6454 2.36275 30.5438 2.37545 30.5438 2.36275C30.3787 1.94365 30.0104 2.13415 29.7437 2.13415C26.9623 2.12145 24.181 2.13415 21.387 2.13415C20.9171 2.13415 20.6758 2.36275 20.6758 2.81996C20.6758 2.99776 20.752 3.21366 20.4472 3.27716C20.3456 3.30256 20.4218 3.50576 20.3964 3.62007C20.3329 3.95027 20.5742 4.34397 20.1551 4.63607C20.0408 4.71228 20.1424 5.10598 20.1297 5.34728C20.1297 5.53778 20.2186 5.77908 19.9265 5.88068C19.8884 5.89338 19.863 6.00769 19.863 6.08389C19.8376 6.43949 19.9646 6.83319 19.5963 7.0999C19.7614 7.7476 19.355 8.30641 19.2788 8.91601C19.2026 9.52562 19.0502 10.1606 18.9105 10.7702C18.7962 11.3036 18.5422 11.837 18.5676 12.4085C18.5803 12.6498 18.7327 12.98 18.339 13.1324C18.2882 13.1451 18.3263 13.3611 18.3009 13.4754C18.2501 13.7929 18.4406 14.1739 18.0596 14.4152C17.9961 14.4533 18.0596 14.6819 18.0342 14.8089C17.9961 15.0502 18.1231 15.2788 17.8183 15.5074C17.6278 15.6598 17.704 16.1297 17.7929 16.4218C17.8564 16.6377 18.1358 16.5234 18.3263 16.5234C21.3743 16.5234 24.4096 16.5234 27.4576 16.5234C27.5846 16.5234 27.7878 16.4218 27.8513 16.625C27.9021 16.7901 27.8259 16.8917 27.6862 17.0314C27.4703 17.2346 27.5846 17.5902 27.61 17.8569C27.6481 18.2633 27.5084 18.3649 27.102 18.3522C25.1843 18.3268 23.2793 18.3522 21.3616 18.3522V18.3903Z" fill="#1E40AF"/>
<path d="M30.7639 2.97387C30.5099 3.25328 30.5099 3.53268 30.5226 3.83748C30.5226 4.53599 30.4718 4.54869 29.7606 4.53599C28.4652 4.51059 27.1571 4.53599 25.8617 4.53599C25.1123 4.53599 24.363 4.53599 23.6137 4.53599C23.0041 4.53599 22.839 4.70109 22.8136 5.32339C22.8136 5.4631 22.6485 5.6282 22.6485 5.6536C22.585 6.2251 22.3691 6.77121 22.2802 7.34271C22.2548 7.55861 22.5215 7.46971 22.6485 7.46971C24.5281 7.46971 26.4078 7.46971 28.2874 7.46971C28.4144 7.46971 28.5287 7.46971 28.6557 7.46971C29.1129 7.46971 29.3669 7.88882 29.1002 8.25712C28.9224 8.49842 28.8589 8.72702 28.8843 8.99373C28.897 9.23503 28.8081 9.31123 28.5795 9.29853C26.4713 9.28583 24.363 9.27313 22.2548 9.27313C22.0897 9.27313 21.8738 9.22233 21.7468 9.37473C21.6706 9.46363 21.7468 9.60333 21.7976 9.71763C21.8992 9.93353 22.0897 9.83193 22.2421 9.83193C24.2487 9.83193 26.2427 9.83193 28.2493 9.83193C28.6049 9.83193 28.8081 9.84463 28.6303 10.3018C28.5287 10.5685 28.5668 10.8733 28.4779 11.1781C28.3763 11.4956 28.2493 11.4956 28.008 11.4956C25.9125 11.4956 23.8169 11.4956 21.7214 11.4956C21.442 11.4956 21.3023 11.4956 21.2388 11.8767C21.1372 12.499 20.9213 13.1086 20.9848 13.7563C20.9848 13.8198 20.9467 13.896 20.9086 13.9595C20.6673 14.3786 20.807 14.6199 21.315 14.6199C22.8263 14.6199 24.3376 14.6199 25.8617 14.6199C26.4078 14.6199 26.9666 14.6199 27.5127 14.6199C27.6397 14.6199 27.7794 14.6834 27.881 14.531C27.9826 14.3659 28.0207 14.4802 28.0842 14.5818C28.262 14.912 28.135 15.7502 27.8429 15.9534C27.7667 16.0042 27.6397 15.9915 27.5254 15.9915C24.5789 15.9915 21.6198 15.9915 18.6734 15.9915C18.5591 15.9915 18.4067 16.0677 18.3559 15.9153C18.2924 15.7375 18.4956 15.7629 18.5591 15.6994C18.6861 15.5597 18.5972 15.3438 18.6226 15.166C18.6607 14.8739 18.4829 14.5183 18.8639 14.3151C18.902 14.3024 18.8893 14.2008 18.902 14.1373C18.902 13.7436 19.0671 13.3499 19.1052 13.007C19.156 12.372 19.4354 11.8132 19.4735 11.1908C19.5116 10.6193 19.664 10.0605 19.8926 9.52713C19.8926 9.51443 19.918 9.50173 19.918 9.48903C19.8164 8.89213 20.1212 8.37142 20.2101 7.79992C20.2482 7.55861 20.0831 7.29191 20.4387 7.10141C20.553 7.03791 20.4641 6.64421 20.4895 6.4029C20.5149 6.2124 20.3498 5.9203 20.7181 5.8568C20.7308 5.8568 20.7562 5.806 20.7562 5.7806C20.5911 5.20909 21.0991 4.72649 21.0229 4.19308C20.9594 3.72318 21.315 3.44378 21.3404 3.03737C21.3404 2.92307 21.4801 2.96117 21.569 2.96117C24.6551 2.96117 27.7413 2.96117 30.8274 2.96117L30.7639 2.97387Z" fill="#1E40AF"/>
<path d="M40.1742 0.291016C40.5425 0.697419 40.098 0.900621 39.9964 1.11652C39.8186 1.48483 39.59 1.85313 39.3106 2.18333C39.1709 2.34843 39.1074 2.61514 39.0058 2.83104C38.7264 3.41524 38.32 3.92325 38.066 4.52015C37.939 4.81225 37.7866 5.07896 37.6723 5.37106C37.5199 5.75206 37.2405 6.09497 37.0246 6.45057C36.8849 6.67917 36.6563 6.89507 36.6055 7.14908C36.542 7.45388 36.3261 7.68248 36.2245 7.96188C36.1483 8.17778 35.9197 8.45719 35.78 8.69849C35.5895 9.04139 35.4117 9.38429 35.2593 9.7399C35.1323 10.0447 34.9291 10.3876 34.7005 10.6797C34.383 11.0988 34.1163 11.5687 33.9004 12.064C33.7988 12.3053 33.7353 12.6228 33.4432 12.826C33.1638 13.0292 33.1384 13.461 32.9351 13.7785C32.7573 14.0579 32.4906 14.3881 32.4652 14.6421C32.389 15.1628 31.9064 15.3533 31.7667 15.8232C31.7032 16.0519 31.5127 16.3821 31.3222 16.6361C31.0809 16.9663 30.8904 17.4235 30.7507 17.8426C30.6364 18.2109 30.4459 18.4268 30.0014 18.3887C29.5569 18.3379 29.1124 18.3887 28.6679 18.376C28.5536 18.376 28.4012 18.4522 28.3377 18.2998C28.2742 18.1474 28.4012 17.9061 28.452 17.8934C28.8076 17.8045 28.7822 17.4235 28.8965 17.2203C29.1505 16.7885 29.3791 16.344 29.6585 15.9248C29.7728 15.7597 29.8617 15.5057 29.9125 15.3533C30.1411 14.6421 30.6999 14.1468 31.0047 13.5118C31.2587 12.9784 31.5127 12.4577 31.7921 11.937C31.9953 11.556 32.2112 11.175 32.4017 10.7813C32.7319 10.1209 33.2019 9.5113 33.5448 8.83819C33.8496 8.25398 34.129 7.65708 34.4846 7.11097C34.637 6.88237 34.6878 6.60297 34.9164 6.41247C35.0942 6.26007 35.1704 5.96796 35.2466 5.77746C35.399 5.37106 35.653 5.04086 35.8435 4.67255C36.1737 4.05025 36.5166 3.42794 36.8595 2.80564C37.0627 2.43733 37.2786 2.09443 37.4564 1.70073C37.5961 1.35782 37.8628 1.04032 38.0025 0.659319C38.066 0.494217 38.3962 0.456117 38.6248 0.506917C38.955 0.570418 39.2979 0.545018 39.6281 0.545018C39.8313 0.545018 40.0345 0.519618 40.1742 0.316416V0.291016Z" fill="#1E40AF"/>
</svg>
