<svg width="81" height="22" viewBox="0 0 81 22" fill="none" xmlns="http://www.w3.org/2000/svg">
<path d="M40.1212 20.0534C38.1865 22.1563 35.091 22.6273 32.618 21.1132C32.046 20.7599 31.6591 20.7095 31.1039 21.0628C30.5319 21.4329 29.8422 21.5506 29.1356 21.5506C26.8644 21.5506 24.6101 21.5506 22.339 21.5506C22.1539 21.5506 21.8679 21.6516 21.8847 21.2815C21.8847 20.9113 22.1876 21.0628 22.3726 21.0459C22.6586 21.0291 22.9446 21.0123 23.2138 21.0459C23.6175 21.0796 23.7185 20.8945 23.7185 20.5244C23.7185 17.3448 23.7185 14.1652 23.7185 10.9856C23.7185 10.5482 23.7017 10.1276 23.5839 9.70703C23.2642 8.51258 22.2549 7.97424 21.0772 8.41164C19.6304 8.93316 18.436 10.666 18.4191 12.3146C18.4023 15.0737 18.4191 17.8495 18.4023 20.6085C18.4023 20.9786 18.5537 21.0628 18.8734 21.0628C19.2435 21.0628 19.6136 21.0628 19.9669 21.0628C20.1519 21.0628 20.2865 21.0964 20.2865 21.3319C20.2865 21.5843 20.1183 21.5674 19.9501 21.5674C17.5107 21.5674 15.0881 21.5674 12.6488 21.5674C12.4637 21.5674 12.2786 21.5674 12.2786 21.2983C12.2786 20.9955 12.4973 21.0628 12.6656 21.0459C13.103 21.0123 13.7086 21.2478 13.9441 20.9282C14.1629 20.6422 14.0283 20.0702 14.0283 19.6159C14.0283 13.6773 14.0283 7.72189 14.0283 1.78327C14.0283 1.56457 14.0283 1.37951 13.7423 1.39633C12.6824 1.4468 11.6057 1.31222 10.5458 1.48045C10.4617 1.48045 10.3776 1.5141 10.2935 1.53092C8.47658 1.9515 7.82047 3.48242 8.7794 5.08063C9.01493 5.48439 9.30092 5.8545 9.5701 6.22462C9.87291 6.6452 10.0243 7.11625 10.0075 7.62095C10.0075 8.83222 10.0075 10.0603 10.0075 11.2716C10.0075 11.423 10.0748 11.6249 9.82244 11.6585C9.60374 11.6922 9.45233 11.6249 9.35139 11.3894C9.03175 10.6323 8.66164 9.90891 8.15694 9.26963C6.81108 7.50318 3.867 7.1499 2.38655 8.5967C1.24257 9.70704 1.61268 11.3221 3.12678 11.7595C4.40535 12.1296 5.75121 12.1632 7.06343 12.4324C7.97188 12.6175 8.88034 12.8193 9.68786 13.3577C10.3608 13.8119 10.7814 14.4176 11.0001 15.1746C12.0431 18.9598 8.94763 22.4591 5.04463 21.9039C4.40535 21.8198 3.78289 21.6347 3.16042 21.4329C2.7062 21.2815 2.23514 21.1637 1.74727 21.2142C1.36033 21.2646 0.99022 21.3824 0.788341 21.7693C0.653755 22.0049 0.451875 21.9712 0.266819 21.9544C0.0312931 21.9207 0.0985863 21.702 0.0985863 21.5506C0.0985863 20.0534 0.0985863 18.5561 0.0985863 17.0588C0.0985863 16.8906 0.0481164 16.6719 0.334112 16.6551C0.603285 16.6214 0.721048 16.756 0.788341 16.9915C1.30986 18.5729 2.23514 19.8683 3.6483 20.7768C5.12875 21.7189 7.09707 21.6684 8.2747 20.6758C8.94763 20.1206 9.25045 19.3972 9.19998 18.5224C9.16634 17.799 8.79622 17.3448 8.12329 17.1261C7.08025 16.7728 5.96991 16.7392 4.8764 16.5878C3.91747 16.4532 2.95854 16.3018 2.08373 15.8475C0.435052 14.9391 -0.221056 13.3072 0.0649397 11.3052C0.502345 8.34435 3.3623 6.46014 6.71014 7.41907C7.24848 7.57048 7.78683 7.77236 8.342 7.85647C8.69528 7.90694 9.0654 7.97424 9.30092 7.63777C9.55327 7.28448 9.40186 6.93119 9.19998 6.61155C8.89716 6.10685 8.5607 5.6358 8.2747 5.1311C7.65224 4.05441 7.68589 2.87678 8.37564 2.05244C8.91399 1.41316 9.65421 1.05987 10.4954 0.958927C12.0936 0.757048 13.6918 0.908457 15.29 0.857987C15.6769 0.857987 16.0639 0.857987 16.434 0.807518C17.1069 0.723401 17.7799 0.622461 18.3855 0V10.0267C18.6042 10.0267 18.6042 9.87527 18.6547 9.79115C20.1183 7.43589 23.4998 6.42649 26.0064 7.63777C27.3355 8.27706 27.8234 9.47151 27.9748 10.851C28.1935 12.7689 28.0589 14.7036 28.0757 16.6382C28.0925 17.9504 28.0757 19.2627 28.0757 20.5917C28.0757 20.8609 28.1094 21.0459 28.4458 21.0459C29.3711 21.0796 30.2627 20.9786 31.1039 20.5076C31.4404 20.3225 31.5245 20.1711 31.3226 19.7842C30.5656 18.3374 30.8179 16.5373 31.9282 15.4438C32.7694 14.6026 33.8797 14.2661 35.0237 14.0474C36.5715 13.7446 38.1697 13.7278 39.7342 13.5596C40.0034 13.5259 40.1212 13.4586 40.1044 13.1726C40.0875 12.0791 40.1548 10.9688 40.0539 9.87527C39.9193 8.44529 39.1791 7.77236 37.7323 7.75553C37.379 7.75553 37.0257 7.75553 36.6892 7.75553C36.4032 7.75553 36.3359 7.85647 36.4874 8.12565C36.807 8.71446 37.0425 9.33692 37.1603 9.99303C37.3958 11.3557 36.4874 12.6343 35.0742 12.9203C33.8629 13.1726 32.6012 12.3146 32.332 11.0361C32.1469 10.1781 32.3993 9.42104 33.0218 8.79858C33.8797 7.94059 34.9396 7.48636 36.1172 7.31813C38.136 7.03213 40.1044 7.13307 41.9886 7.99106C43.5195 8.68081 44.2765 9.90891 44.2934 11.5912C44.2934 14.3839 44.3438 17.1934 44.2934 19.9861C44.2597 21.3992 45.0168 21.5843 46.1607 21.3656C46.4467 21.3151 46.6991 21.1805 46.9514 21.0628C47.7085 20.6926 48.1291 20.1375 48.0281 19.2458C47.9608 18.6234 47.9945 17.9841 48.0281 17.3448C48.0281 17.1093 47.8262 16.7392 48.2636 16.6551C48.6842 16.5709 48.6674 16.9747 48.7515 17.2102C49.3908 18.8757 50.3834 20.2216 52.0152 21.0123C53.3779 21.6684 54.7238 21.6347 56.0024 20.7936C56.7594 20.3057 57.0959 19.5655 57.1295 18.6738C57.1632 17.8832 56.793 17.3616 56.0192 17.0925C55.0098 16.7392 53.9331 16.7223 52.8732 16.5709C52.2171 16.47 51.561 16.3691 50.9217 16.184C48.516 15.4942 47.6244 13.6269 47.9272 11.3389C48.2805 8.64717 50.6694 6.91437 53.4284 7.20037C54.2191 7.28448 55.0098 7.45271 55.7668 7.72189C56.6248 8.02471 57.2473 7.83965 57.8866 7.1499C59.0978 5.8545 60.6119 5.21522 62.4289 5.46757C63.4382 5.60215 64.3299 6.03956 65.0365 6.72931C65.5412 7.23401 66.0627 7.3013 66.7188 7.25083C68.3338 7.13307 69.9489 7.26766 71.463 7.90694C72.6742 8.41164 73.5659 9.23598 73.8687 10.565C73.9528 10.9015 74.1715 10.9015 74.4239 10.9183C75.5342 10.9856 76.5941 11.2211 77.5698 11.7595C79.1848 12.6679 79.9587 14.1316 80.1438 15.9148C80.3288 17.7654 79.9924 19.4645 78.4951 20.7599C77.5698 21.5506 76.4763 21.8871 75.2818 21.9544C74.5921 21.988 73.8855 21.988 73.1789 21.9544C71.8667 21.9039 70.7396 21.4329 70.033 20.2552C69.932 20.087 69.8647 19.9692 69.6797 20.1879C68.4348 21.7189 66.7356 22.0049 64.9187 21.9039C64.0607 21.8534 63.2532 21.6516 62.4961 21.2142C61.268 20.5244 60.6792 19.4645 60.6624 18.0682C60.6624 16.6214 61.2512 15.5279 62.4961 14.8045C63.6065 14.1652 64.8346 13.9633 66.0795 13.8287C67.1898 13.711 68.3002 13.61 69.4105 13.5427C69.747 13.5259 69.8311 13.3745 69.8143 13.0717C69.8143 12.1296 69.8143 11.1707 69.7974 10.2286C69.7638 8.49576 68.9899 7.73871 67.274 7.72189C66.9711 7.72189 66.6683 7.72189 66.3823 7.72189C66.0795 7.72189 66.0459 7.82283 66.1804 8.07518C66.5842 8.8154 66.887 9.58927 66.8702 10.4473C66.8534 11.5408 66.0963 12.5333 65.0701 12.8025C63.9429 13.0885 62.8663 12.6848 62.3111 11.7427C61.7223 10.7333 61.8737 9.63974 62.698 8.76493C63.2195 8.20976 63.8588 7.82283 64.5822 7.5873C65.0365 7.43589 64.9523 7.31813 64.6663 7.04896C62.8158 5.3498 60.0904 5.46757 58.4081 7.31813C58.0884 7.67142 57.8866 8.092 57.8697 8.57987C57.8697 9.43786 57.8529 10.3127 57.8361 11.1707C57.8361 11.3221 57.937 11.5576 57.6342 11.6081C57.3987 11.6417 57.2977 11.5071 57.1968 11.2884C56.7089 10.1613 56.1369 9.1014 55.1275 8.36117C53.8994 7.45271 51.7629 7.41907 50.518 8.29388C49.9628 8.68081 49.6768 9.23598 49.6263 9.89209C49.559 10.6491 49.845 11.1707 50.5348 11.5071C51.4601 11.9445 52.4695 11.9782 53.4452 12.1296C54.3369 12.2642 55.2285 12.3819 56.0865 12.6343C58.038 13.1895 58.9128 14.2661 59.0474 16.2681C59.2661 19.5991 56.2715 22.3245 52.9742 21.8534C51.7965 21.6852 50.703 21.3319 49.6768 20.7936C48.987 20.4403 48.3814 20.4571 47.8094 20.9955C47.2879 21.4833 46.6318 21.7693 45.9252 21.8366C44.8653 21.9207 43.7887 21.9712 42.7456 21.803C41.6857 21.6347 40.8614 21.0964 40.3231 20.1543C40.2726 20.087 40.2389 20.0029 40.1548 19.9861L40.1212 20.0534ZM73.9864 16.0494C73.9864 17.4457 73.9864 18.8421 73.9864 20.2384C73.9864 21.0964 74.3229 21.416 75.1641 21.416C76.4595 21.416 77.5698 20.945 78.4614 20.0029C79.7905 18.6234 80.0428 15.898 79.0334 13.997C78.0745 12.2137 76.409 11.6249 74.508 11.4398C74.0874 11.4062 73.9528 11.5071 73.9696 11.9445C73.9865 13.3072 73.9696 14.6699 73.9696 16.0326L73.9864 16.0494ZM69.8143 16.2513C69.8143 16.2513 69.8479 16.2513 69.8647 16.2513C69.8647 15.6457 69.8647 15.0568 69.8647 14.4512C69.8647 14.2325 69.8647 14.0138 69.5619 14.0643C68.5357 14.2157 67.4758 14.182 66.4496 14.4848C65.743 14.6867 65.2888 15.1746 65.1711 15.8644C64.9692 17.0252 64.9523 18.2028 65.2215 19.3636C65.4066 20.1543 65.8271 20.7768 66.6851 20.945C67.5768 21.13 68.3675 20.945 68.9731 20.2048C69.4778 19.6159 69.7638 18.9262 69.8143 18.1691C69.8479 17.5299 69.8143 16.8738 69.8143 16.2345V16.2513ZM40.1212 16.2345C40.1212 15.5784 40.1212 15.0232 40.1212 14.4512C40.1212 14.182 40.0371 14.0306 39.7511 14.0643C38.8426 14.1652 37.9342 14.2493 37.0257 14.4007C36.0836 14.5521 35.5116 15.1241 35.3602 16.0662C35.192 17.1429 35.2088 18.2196 35.4275 19.2795C35.5957 20.1206 36.0499 20.7936 36.9752 20.9618C37.9678 21.1469 38.7753 20.844 39.381 20.0197C39.7342 19.5318 39.9361 18.9767 40.0371 18.371C40.1716 17.6308 40.0875 16.8738 40.1212 16.2176V16.2345Z" fill="#1E40AF"/>
</svg>
