<svg width="88" height="18" viewBox="0 0 88 18" fill="none" xmlns="http://www.w3.org/2000/svg">
<path d="M17.4278 6.24961C18.0724 5.88699 18.5156 5.59153 18.9857 5.36322C21.2554 4.34253 23.0684 5.20206 23.2564 7.65977C23.4848 10.7084 23.3907 13.7705 23.431 16.8325C23.431 17.1817 23.3773 17.4772 23.0147 17.6652C21.1345 18.6187 19.1603 17.4369 19.1468 15.3686C19.1468 13.5959 19.1468 11.8365 19.0528 10.0638C19.0125 9.4594 19.12 8.46557 18.1933 8.479C17.2935 8.49243 17.3875 9.40568 17.3875 10.0772C17.4144 12.1186 17.3875 14.1599 17.5084 16.2013C17.5755 17.3429 17.2801 17.7592 16.0579 17.7189C12.4721 17.6249 13.1302 18.1487 13.0899 14.912C13.0361 10.5607 13.3316 6.19589 12.8347 1.8714C12.6198 0.0180446 14.0165 0.528388 14.7955 0.326937C17.2666 -0.290847 17.2801 -0.237127 17.2666 2.31459C17.2666 3.40243 17.2666 4.49026 17.2801 5.5781C17.2801 5.7124 17.3203 5.8467 17.4009 6.23618L17.4278 6.24961Z" fill="#1E40AF"/>
<path d="M26.3832 8.62647C26.2892 5.52412 26.5175 5.24209 29.5393 5.04064C30.6137 4.97349 31.715 4.89291 32.776 5.2018C34.3473 5.65842 35.1665 6.7194 35.1934 8.33101C35.2605 11.111 35.2471 13.9045 35.3143 16.6845C35.3411 17.5038 34.9919 17.8664 34.2533 17.7186C33.1923 17.5172 31.9567 18.323 31.0569 17.2217C30.7077 16.7785 30.4929 17.1949 30.2377 17.2889C27.7934 18.1753 26.4101 17.7992 25.5774 16.0265C24.6642 14.0791 25.376 11.5274 27.1756 10.4664C28.0486 9.95605 29.0155 9.63373 30.0362 9.45914C30.466 9.37856 31.0704 9.32484 30.9763 8.6399C30.8958 8.08927 30.4123 7.92811 29.9154 7.84753C28.6395 7.64608 27.5382 8.21014 26.3832 8.6399V8.62647ZM31.0838 13.0718C30.9092 12.6286 31.4867 11.7154 30.5734 11.6617C29.6333 11.608 29.1633 12.36 29.1364 13.2867C29.1096 14.0388 29.4319 14.7103 30.2645 14.67C31.2181 14.6163 31.0972 13.7836 31.0972 13.0718H31.0838Z" fill="#1E40AF"/>
<path d="M3.32481 11.2181C3.32481 9.5259 3.24423 7.82028 3.35167 6.12809C3.43225 4.85223 3.00248 4.38218 1.75349 4.5702C0.70594 4.71793 -0.0864356 4.66421 0.00757502 3.17347C0.0881556 1.9379 0.128446 1.15895 1.74006 1.2261C4.45293 1.34698 7.16581 1.2261 9.89212 1.21267C10.6711 1.21267 11.5306 1.11866 11.2486 2.31394C11.0471 3.1869 11.7723 4.78508 9.82497 4.50305C8.28051 4.27473 7.81046 4.87909 7.87761 6.41012C7.99848 9.5259 7.83732 12.6685 8.01191 15.7709C8.10592 17.4631 7.56872 17.9734 5.9974 17.7317C5.66164 17.678 5.31246 17.6914 4.97671 17.7317C3.70085 17.9197 3.13679 17.4899 3.24423 16.0932C3.3651 14.4682 3.27109 12.8297 3.27109 11.2047H3.31138L3.32481 11.2181Z" fill="#1E40AF"/>
<path d="M38.1041 11.7952C37.9027 10.4387 38.7622 8.81369 37.0969 7.64527C36.8014 7.44382 36.9357 5.85907 37.2043 5.76506C39.1114 5.03983 37.0834 1.81661 40.1052 1.65545C42.4286 1.52115 42.3883 1.13168 42.3883 3.44165C42.3883 4.32804 41.972 5.38901 43.597 5.4293C44.2685 5.44273 44.2551 7.96759 43.503 8.08846C42.0257 8.34363 42.3346 9.32403 42.3077 10.2104C42.2809 11.2311 42.2675 12.2518 42.3346 13.259C42.3749 13.9171 42.4689 14.7364 43.3419 14.8169C44.8326 14.9512 44.0134 16.0256 44.1074 16.6703C44.2417 17.5835 43.5567 17.7313 42.8047 17.8118C39.4874 18.1745 38.2519 17.1806 38.1041 13.9037C38.0773 13.2322 38.1041 12.5473 38.1041 11.8086V11.7952Z" fill="#1E40AF"/>
<path d="M75.2189 11.8763C74.8025 10.6676 76.1724 8.80078 74.1042 7.82038C74.0639 7.80695 74.0505 7.69951 74.0505 7.63236C74.0907 6.90713 73.849 6.12819 74.3191 5.45668C75.5009 3.76449 75.6083 0.997893 78.7241 1.29336C79.8388 1.4008 79.3016 2.12602 79.4359 2.6095C79.718 3.64362 78.5764 5.26866 80.8327 5.55069C81.1953 5.59098 81.5176 7.78009 80.5103 8.08898C79.1942 8.49188 79.4359 9.2574 79.4091 10.0766C79.3822 11.0973 79.3822 12.118 79.4091 13.1387C79.4225 13.8371 79.5031 14.6563 80.3223 14.7772C81.8936 15.0055 81.1013 16.053 81.1281 16.7917C81.1684 17.9601 80.2417 17.7721 79.5434 17.8124C76.2261 18.0004 75.2726 17.0871 75.2457 13.7162C75.2457 13.1656 75.2457 12.6284 75.2457 11.8763H75.2189Z" fill="#1E40AF"/>
<path d="M60.173 8.27799C59.2867 7.91537 58.9912 7.75421 58.6823 7.68706C57.8899 7.51247 56.9498 7.19015 56.5201 8.14369C56.1037 9.05693 57.0035 9.43297 57.5945 9.83588C58.7226 10.6014 59.9044 11.3132 60.1999 12.7905C60.5491 14.5364 60.1328 16.0271 58.642 17.1016C57.487 17.9342 53.6863 18.1894 52.7462 17.4642C51.6852 16.6449 52.6119 15.5571 52.1016 14.4021C52.7596 14.6573 53.0685 14.7647 53.364 14.899C54.2907 15.3154 55.3516 15.6108 55.8754 14.5633C56.3589 13.6097 55.2576 13.2337 54.6264 12.7771C52.2627 11.1117 51.5106 8.94949 52.5985 6.89469C53.4983 5.17564 56.8021 4.24896 59.0181 5.09506C60.6297 5.72627 59.3001 6.9887 60.1596 8.2377L60.173 8.27799Z" fill="#1E40AF"/>
<path d="M72.532 11.836C72.5857 13.0447 72.5991 14.6698 72.7469 16.2948C72.8409 17.3021 72.6797 17.7318 71.5113 17.7453C68.1806 17.8124 68.2075 17.8796 68.2209 14.4683C68.2209 12.0375 68.2478 9.5932 68.0463 7.16235C67.9523 5.96707 68.1001 5.52388 69.4028 5.38958C72.5589 5.06726 72.5454 4.97325 72.5186 8.16961C72.5186 9.25745 72.5186 10.3319 72.5186 11.836H72.532Z" fill="#1E40AF"/>
<path d="M46.9725 6.72123C45.8578 6.93611 45.4684 6.56007 45.8578 5.44537C46.1264 4.67986 46.4891 3.88748 46.4756 3.10854C46.4219 0.677693 47.8992 0.476241 49.766 0.543392C50.827 0.583682 50.8404 0.919434 50.4644 1.76553C49.9003 2.98767 49.4168 4.2501 48.9602 5.51253C48.611 6.49292 48.0067 6.93611 46.9725 6.72123Z" fill="#1E40AF"/>
<path d="M72.3035 1.76436C72.599 4.58468 70.3696 3.72515 69.1206 3.91317C67.5359 4.15492 68.3282 2.73133 68.2879 2.10011C68.0865 -0.679917 70.4905 0.730243 71.632 0.32734C72.8005 -0.0889927 72.0484 1.3346 72.3035 1.77779V1.76436Z" fill="#1E40AF"/>
<path d="M85.2357 17.6102C83.5973 18.0131 83.4093 17.1402 83.3287 15.7434C83.2212 13.9975 84.1613 14.011 85.4103 13.9169C87.0622 13.7826 87.0085 14.7362 87.0622 15.918C87.1294 17.3282 86.6996 17.9728 85.2357 17.6236V17.6102Z" fill="#1E40AF"/>
</svg>
