<?xml version="1.0" encoding="UTF-8"?>
<svg id="Capa_2" data-name="Capa 2" xmlns="http://www.w3.org/2000/svg" viewBox="0 0 764.34 636.33">
  <defs>
    <style>
      .cls-1 {
        fill: #1e40b0;
        stroke-width: 0px;
      }
    </style>
  </defs>
  <g id="Layer_1" data-name="Layer 1">
    <g>
      <path class="cls-1" d="M535.51,229.16l-45.36,44.68c11.72,11.89,18.17,27.63,18.17,44.33s-6.45,32.44-18.17,44.33l45.36,44.68c23.52-23.88,36.47-55.49,36.47-89s-12.95-65.13-36.47-89.01Z"/>
      <path class="cls-1" d="M604.31,162.29l-44.96,45.08c30.04,29.96,46.61,69.82,46.67,112.25.05,42.43-16.41,82.33-46.44,112.44l-.26.26,45.02,45.02.39-.39c41.97-42.08,65.04-97.98,64.96-157.42-.08-59.43-23.3-115.28-65.38-157.24Z"/>
      <path class="cls-1" d="M670.97,93.28l-44.94,45.09c48.02,47.86,74.53,111.56,74.65,179.36.11,67.8-26.18,131.59-74.06,179.62l-.58.57,44.92,45.12.76-.76c59.87-60.07,92.76-139.85,92.62-224.66-.14-84.81-33.3-164.48-93.37-224.35Z"/>
      <path class="cls-1" d="M179.68,159H0v318.33h179.68l199,159h98.65V0h-98.65l-199,159ZM159,413.67H63.67v-191h95.33v191ZM413.67,63.67v509h-12.68l-178.32-142.48v-224.04L400.99,63.67h12.68Z"/>
    </g>
  </g>
</svg>