<?xml version="1.0" encoding="UTF-8"?>
<svg id="Capa_2" data-name="Capa 2" xmlns="http://www.w3.org/2000/svg" viewBox="0 0 763.67 637.5">
  <defs>
    <style>
      .cls-1 {
        fill: #1e40b0;
        stroke-width: 0px;
      }
    </style>
  </defs>
  <g id="Layer_1" data-name="Layer 1">
    <g>
      <path class="cls-1" d="M381.83,637.5l-8.37-2.28c-3.78-1.03-93.69-25.95-184.56-87.86-54.2-36.94-97.56-79.47-128.87-126.42C20.2,361.19,0,294.54,0,222.83v-.19C.45,148.44,37.6,79.6,99.37,38.49,148.92,5.51,208.34-6.2,266.7,5.52c44.33,8.9,84,30.51,114.97,62.1C423,24.94,479.99.25,540.71,0h.79c59.49.11,115.32,23.35,157.27,65.44,41.95,42.1,65,98.01,64.89,157.44,0,71.65-20.2,138.3-60.04,198.04-31.31,46.95-74.67,89.49-128.87,126.42-90.86,61.92-180.77,86.83-184.56,87.86l-8.37,2.28ZM63.67,223c.03,58.55,16.46,113,48.83,161.84,26.51,40.01,63.81,76.66,110.86,108.93,66.99,45.96,135.17,70.03,158.48,77.46,23.28-7.42,91.47-31.49,158.47-77.46,47.04-32.28,84.34-68.93,110.86-108.93,32.4-48.89,48.83-103.4,48.83-162.01.08-42.48-16.38-82.39-46.33-112.45s-69.81-46.64-112.23-46.72h-.48c-53.6.22-103.13,27.11-132.5,71.94l-26.42,40.33-26.71-40.13c-23.56-35.39-59.49-59.49-101.17-67.86-41.68-8.37-84.13,0-119.52,23.55-44.12,29.36-70.65,78.52-70.98,131.51Z"/>
      <path class="cls-1" d="M561.4,393.61l-43.79-46.21c34.12-32.34,54.18-77.82,55.06-124.82v-.27c-.09-17.28-14.21-31.31-31.5-31.31-.06,0-.11,0-.17,0l-.34-63.67c.17,0,.34,0,.51,0,52.25,0,94.88,42.36,95.16,94.66v1.38c-.55,32.1-7.39,63.28-20.32,92.66-12.94,29.39-31.31,55.48-54.62,77.57Z"/>
    </g>
  </g>
</svg>