<?xml version="1.0" encoding="UTF-8"?>
<svg id="Capa_2" data-name="Capa 2" xmlns="http://www.w3.org/2000/svg" viewBox="0 0 66.84 54.87">
  <defs>
    <style>
      .cls-1 {
        fill: none;
      }

      .cls-1, .cls-2, .cls-3, .cls-4 {
        stroke-width: 0px;
      }

      .cls-2 {
        fill: #ff7d5e;
      }

      .cls-3 {
        fill: #9e64ff;
      }

      .cls-4 {
        fill: #161946;
      }
    </style>
  </defs>
  <g id="Capa_1-2" data-name="Capa 1">
    <g>
      <path class="cls-4" d="M33.74,7.35c.17-.11.27-.3.27-.51s-.1-.39-.27-.51c-2.01-1.34-4.74-4.07-6.08-6.08-.23-.34-.79-.34-1.01,0-1.34,2.01-4.07,4.74-6.08,6.08-.17.11-.27.3-.27.51s.1.39.27.51c2.01,1.34,4.74,4.07,6.08,6.08.11.17.3.27.51.27s.39-.1.51-.27c1.34-2.01,4.07-4.74,6.08-6.08ZM27.15,12.04c-1.35-1.79-3.41-3.85-5.2-5.2,1.79-1.34,3.85-3.41,5.2-5.2,1.34,1.79,3.41,3.85,5.2,5.2-1.79,1.34-3.85,3.41-5.2,5.2Z"/>
      <path class="cls-2" d="M35.5,20.21c-2.15,0-3.9-1.75-3.9-3.9s1.75-3.9,3.9-3.9,3.9,1.75,3.9,3.9-1.75,3.9-3.9,3.9ZM35.5,13.92c-1.32,0-2.4,1.08-2.4,2.4s1.08,2.4,2.4,2.4,2.4-1.08,2.4-2.4-1.08-2.4-2.4-2.4Z"/>
      <g>
        <path class="cls-1" d="M31.93,34.1c-.08.03-.16.07-.24.11.08-.03.16-.07.24-.11,0,0,0,0,0,0Z"/>
        <path class="cls-1" d="M27.04,32.41c-.02-.71.28-1.4.78-1.9-.51.5-.81,1.19-.78,1.9Z"/>
        <path class="cls-1" d="M31.08,34.4c.2-.05.39-.12.58-.19-.19.07-.38.13-.58.19Z"/>
        <path class="cls-1" d="M29.59,34.6s.03,0,.04,0c-.01,0-.03,0-.04,0Z"/>
        <path class="cls-1" d="M31.07,34.4c-.41.11-.82.17-1.24.19,0,0,0,0,0,0,.42-.02.84-.09,1.24-.19Z"/>
        <path class="cls-3" d="M28.31,44.54c-.36-.21-.49-.66-.28-1.02.21-.36.66-.49,1.02-.28l9.01,5.12c.61-.77,1.21-1.73,1.78-2.92-.07.02-.15.06-.22.06-.13,0-.26-.03-.38-.1l-12.79-7.57c-.36-.21-.47-.67-.26-1.03.21-.36.67-.48,1.03-.26l12.79,7.57c.14.08.22.2.29.33.12-.29.24-.6.35-.91.37-1.02.56-2.11.64-3.16l-9.21-5.06c-.36-.2-.5-.66-.3-1.02.04-.07.09-.13.15-.18-.08.03-.16.07-.24.11,0,0-.02,0-.03,0-.19.07-.38.13-.58.19,0,0-.01,0-.02,0-.41.11-.82.17-1.24.19,0,0,0,0,0,0,0,0,0,0,0,0-.07,0-.13,0-.19,0-.01,0-.03,0-.04,0-.31.01-.58.02-.76.02h0c-.09,0-.15,0-.18,0-.01,0-.02,0-.02,0-.54-.21-1.02-.6-1.3-1.15-.1-.18-.17-.39-.22-.61-.03-.14-.05-.29-.05-.43-.02-.71.28-1.4.78-1.9.2-.2.44-.37.7-.5l7.08-3.56-7.38-.87c-1.34-.16-2.64-.54-3.85-1.13l-12.8-6.26c-1.23-.62-2.74-.12-3.36,1.11-.19.39-.28.8-.26,1.2.02.67-.4,1.24-1.03,1.47-1.03.38-1.92,1.12-2.45,2.18-.44.87-.56,1.81-.43,2.7.12.78-.29,1.59-1.04,1.85-1.2.41-2.22,1.33-2.72,2.63-.84,2.19.26,4.65,2.35,5.71l16.29,7.97,4.39-3.26c.66-.49,1.6-.36,2.1.31.42.57.38,1.34-.06,1.86l.35-.26c.33-.25.8-.18,1.05.15.25.33.18.8-.15,1.05l-3.16,2.35.04.02,2.62-1.95c.66-.49,1.6-.36,2.1.31.42.57.38,1.34-.06,1.86l.35-.26c.33-.25.8-.18,1.05.15.24.32.18.75-.12,1.01.59-.18,1.25,0,1.64.53.46.61.37,1.46-.17,1.97l1.79.88c.99.48,2.16.58,3.16.13,1.11-.5,1.58-1.39,1.78-2.09-.08-.01-.17-.02-.24-.06l-9.07-5.16Z"/>
        <path class="cls-3" d="M32.8,33.98l8.51,4.68c-.07-1.69-.41-3.1-.76-3.64-1.52-2.35-2.85-3.73-5.38-2.53l-2.81,1.41c.15-.02.3,0,.44.08Z"/>
        <path class="cls-2" d="M66.56,29.69c-.5-1.29-1.5-2.2-2.67-2.62-.76-.27-1.21-1.05-1.08-1.85.14-.89.01-1.84-.42-2.71-.53-1.06-1.43-1.8-2.45-2.18-.63-.23-1.05-.8-1.03-1.47.01-.4-.07-.82-.26-1.2-.62-1.23-2.13-1.73-3.36-1.11l-19.67,9.9-7.08,3.56c-.26.13-.5.3-.7.5-.51.5-.81,1.19-.78,1.9,0,.14.02.29.05.43.05.22.12.43.22.61.29.55.76.94,1.3,1.15,0,0,0,0,.02,0,.03,0,.09,0,.18,0h0c.18,0,.46,0,.76-.02.01,0,.03,0,.04,0,.06,0,.13,0,.19,0,0,0,0,0,0,0,.42-.02.84-.09,1.24-.19,0,0,.01,0,.02,0,.2-.05.39-.12.58-.19,0,0,.02,0,.03,0,.08-.03.16-.07.24-.11.12-.11.27-.18.43-.19l2.81-1.41c2.53-1.2,3.86.18,5.38,2.53.35.54.69,1.95.76,3.64l.73.4c.36.2.5.66.3,1.02-.14.25-.39.39-.66.39-.12,0-.25-.03-.36-.09l-.03-.02c-.08,1.06-.27,2.15-.64,3.16-.12.32-.23.62-.35.91.1.22.11.47-.02.69-.1.16-.25.26-.42.31-.56,1.19-1.16,2.15-1.78,2.92l.06.04s.06.06.1.08l25.98-13.08c2.09-1.05,3.2-3.52,2.35-5.71Z"/>
        <path class="cls-2" d="M25.35,43.92c.44-.52.49-1.29.06-1.86-.5-.67-1.44-.8-2.1-.31l-4.39,3.26-.45.33c-.67.49-.8,1.43-.31,2.1.29.4.75.61,1.21.61.23,0,.46-.07.67-.18l5.3-3.94Z"/>
        <path class="cls-4" d="M26.75,43.81c-.25-.33-.72-.4-1.05-.15l-.35.26-5.3,3.94-.3.22c-.33.25-.4.72-.15,1.05.15.2.37.3.6.3.16,0,.31-.05.45-.15l2.79-2.08,3.16-2.35c.33-.25.4-.72.15-1.05Z"/>
        <path class="cls-2" d="M28.14,47.45c.44-.52.49-1.29.06-1.86-.5-.67-1.44-.8-2.1-.31l-2.62,1.95-2.21,1.64c-.67.49-.8,1.43-.31,2.1.29.4.75.61,1.21.61.23,0,.46-.07.67-.18l5.3-3.94Z"/>
        <path class="cls-2" d="M31.06,48.88c-.39-.52-1.05-.71-1.64-.53-.01.01-.02.03-.04.04l-5.62,4.18c-.32.51-.32,1.18.06,1.69.29.4.75.61,1.21.61.31,0,.62-.1.89-.3l4.83-3.59c.05-.04.09-.08.14-.13.54-.52.63-1.36.17-1.97Z"/>
        <path class="cls-4" d="M29.38,48.39s.02-.03.04-.04c.29-.25.35-.69.12-1.01-.25-.33-.72-.4-1.05-.15l-.35.26-5.3,3.94-.3.22c-.33.25-.4.72-.15,1.05.15.2.37.3.6.3.16,0,.31-.05.45-.15l.33-.25,5.62-4.18Z"/>
        <path class="cls-4" d="M31.78,34.27c-.2.36-.07.82.3,1.02l9.21,5.06.03.02c.11.06.24.09.36.09.26,0,.52-.14.66-.39.2-.36.07-.82-.3-1.02l-.73-.4-8.51-4.68c-.14-.08-.29-.09-.44-.08-.16.02-.31.08-.43.19,0,0,0,0,0,0-.06.05-.11.11-.15.18Z"/>
        <path class="cls-4" d="M40,44.1l-12.79-7.57c-.36-.21-.82-.09-1.03.26-.21.36-.09.82.26,1.03l12.79,7.57c.12.07.25.1.38.1.08,0,.15-.03.22-.06.17-.05.33-.15.42-.31.13-.22.12-.48.02-.69-.06-.13-.15-.25-.29-.33Z"/>
        <path class="cls-4" d="M38.06,48.36l-9.01-5.12c-.36-.2-.82-.08-1.02.28-.2.36-.08.82.28,1.02l9.07,5.16c.08.04.16.05.24.06.04,0,.08.03.13.03.26,0,.51-.14.65-.38.18-.32.09-.71-.19-.94-.03-.03-.06-.06-.1-.08l-.06-.04Z"/>
      </g>
    </g>
  </g>
</svg>