<?xml version="1.0" encoding="UTF-8"?>
<svg id="Capa_2" data-name="Capa 2" xmlns="http://www.w3.org/2000/svg" viewBox="0 0 50.67 44.3">
  <defs>
    <style>
      .cls-1 {
        fill: #ff7d5e;
      }

      .cls-1, .cls-2 {
        stroke-width: 0px;
      }

      .cls-2 {
        fill: #161946;
      }
    </style>
  </defs>
  <g id="Capa_1-2" data-name="Capa 1">
    <g>
      <polygon class="cls-1" points="29.46 4.32 28.78 0 0 2.55 10.95 38.71 20.61 37.77 19.1 5.6 29.46 4.32"/>
      <path class="cls-2" d="M20.88,44.3c-.17,0-.35-.06-.48-.17-.16-.13-.26-.33-.27-.54l-1.78-37.95c-.02-.39.27-.73.66-.78l24.7-3.06c.4-.05.77.22.83.62l6.11,37.18c.03.2-.02.41-.14.57s-.3.27-.5.3l-29.03,3.82s-.07,0-.1,0ZM19.88,6.26l1.71,36.44,27.46-3.61L43.18,3.38l-23.3,2.88Z"/>
      <path class="cls-2" d="M23.87,12.78c-.38,0-.7-.28-.74-.66-.05-.41.25-.78.66-.83l16.24-1.91c.42-.04.78.25.83.66.05.41-.25.78-.66.83l-16.24,1.91s-.06,0-.09,0Z"/>
      <path class="cls-2" d="M29.46,21.44c-.38,0-.7-.28-.74-.67-.05-.41.25-.78.66-.83l11.74-1.34c.42-.04.78.25.83.66.05.41-.25.78-.66.83l-11.74,1.34s-.06,0-.09,0Z"/>
      <path class="cls-2" d="M31.33,27.73c-.38,0-.7-.28-.74-.67-.05-.41.25-.78.66-.83l12.72-1.45c.42-.04.78.25.83.66s-.25.78-.66.83l-12.72,1.45s-.06,0-.09,0Z"/>
      <path class="cls-2" d="M31.33,34.45c-.38,0-.7-.28-.74-.67-.05-.41.25-.78.66-.83l11.24-1.28c.42-.04.78.25.83.66.05.41-.25.78-.66.83l-11.24,1.28s-.06,0-.09,0Z"/>
      <circle class="cls-1" cx="26.06" cy="21.58" r="1.62"/>
      <circle class="cls-1" cx="26.77" cy="28.14" r="1.62"/>
      <circle class="cls-1" cx="27.47" cy="34.69" r="1.62"/>
    </g>
  </g>
</svg>