<?xml version="1.0" encoding="UTF-8"?>
<svg id="Capa_2" data-name="Capa 2" xmlns="http://www.w3.org/2000/svg" viewBox="0 0 735.09 735.49">
  <defs>
    <style>
      .cls-1 {
        fill: #1e40b0;
        stroke-width: 0px;
      }
    </style>
  </defs>
  <g id="Layer_1" data-name="Layer 1">
    <path class="cls-1" d="M591.06,0c-38,.04-75.06,15.57-101.72,42.64L51.27,480.06l-17.24-4.57-3.28,25.06h0S0,735.42,0,735.42H0v.08s40.67-5.4,40.67-5.4l194.21-25.42.41-.41,24.7-3.28-4.53-16.93,437.26-437.91c27-26.74,42.44-63.87,42.36-101.81v-.33C735.09,64.6,670.49,0,591.06,0ZM176.61,648.16l-103.09,13.68,13.49-103.08c18.95,9.27,36.29,21.69,51.21,36.81l.5.49c15.59,15.11,28.39,32.76,37.89,52.09ZM205.02,575.19l323.74-323.74,34.61,34.61-331.18,331.67c-7.6-15.04-16.7-29.3-27.18-42.54ZM160.21,530.43c-13.25-10.46-27.52-19.56-42.56-27.15L449.36,172.06l34.61,34.61-323.77,323.77ZM671.76,144.4c.04,21.18-8.57,41.87-23.61,56.77l-.13.13-39.9,39.96-113.94-113.94,39.95-39.9.22-.22c14.86-15.14,35.56-23.83,56.74-23.85,44.48,0,80.67,36.19,80.67,80.67v.4Z"/>
  </g>
</svg>