<?xml version="1.0" encoding="UTF-8"?>
<svg id="Capa_2" data-name="Capa 2" xmlns="http://www.w3.org/2000/svg" viewBox="0 0 749.6 418.02">
  <defs>
    <style>
      .cls-1 {
        fill: #1e40b0;
        fill-rule: evenodd;
        stroke-width: 0px;
      }
    </style>
  </defs>
  <g id="Layer_1" data-name="Layer 1">
    <path class="cls-1" d="M203.29,418.02C91.15,418.02,0,324.28,0,209.04S91.2.05,203.29.05c63.25,0,122.64,30.26,161.13,81.41l-45.74,44.75c-26.35-38.78-69.41-61.88-115.39-61.88-77.55,0-140.61,64.94-140.61,144.71s63.11,144.71,140.61,144.71c40.85,0,99.72-90.78,147.11-163.67C413.88,92.28,473.79,0,546.78,0c111.86,0,202.82,93.46,202.82,208.38s-90.96,208.38-202.82,208.38c-63.01,0-122.35-30.16-160.66-81.27l45.32-45.27c26.31,38.96,69.41,62.26,115.34,62.26,77.27,0,140.14-64.66,140.14-144.09s-62.87-144.09-140.14-144.09c-39.34,0-97.55,89.51-144.24,161.46-64.24,98.92-124.89,192.28-199.25,192.28h0Z"/>
  </g>
</svg>