<?xml version="1.0" encoding="UTF-8"?>
<svg id="Capa_2" data-name="Capa 2" xmlns="http://www.w3.org/2000/svg" viewBox="0 0 763.67 636.33">
  <defs>
    <style>
      .cls-1 {
        fill: #1e40b0;
        stroke-width: 0px;
      }
    </style>
  </defs>
  <g id="Layer_1" data-name="Layer 1">
    <g>
      <path class="cls-1" d="M763.67,636.33H0V0h763.67v636.33ZM63.67,572.67h636.33V63.67H63.67v509Z"/>
      <path class="cls-1" d="M350.17,477.33h-63.67c-52.66,0-95.5-42.84-95.5-95.5v-127.33c0-52.66,42.84-95.5,95.5-95.5h63.67v63.67h-63.67c-17.55,0-31.83,14.28-31.83,31.83v127.33c0,17.55,14.28,31.83,31.83,31.83h63.67v63.67Z"/>
      <path class="cls-1" d="M572.83,477.33h-63.67c-52.66,0-95.5-42.84-95.5-95.5v-127.33c0-52.66,42.84-95.5,95.5-95.5h63.67v63.67h-63.67c-17.55,0-31.83,14.28-31.83,31.83v127.33c0,17.55,14.28,31.83,31.83,31.83h63.67v63.67Z"/>
    </g>
  </g>
</svg>